%TF.GenerationSoftware,KiCad,Pcbnew,8.0.7*%
%TF.CreationDate,2026-01-14T22:46:50+09:00*%
%TF.ProjectId,alarm_unit,616c6172-6d5f-4756-9e69-742e6b696361,rev?*%
%TF.SameCoordinates,Original*%
%TF.FileFunction,Copper,L1,Top*%
%TF.FilePolarity,Positive*%
%FSLAX46Y46*%
G04 Gerber Fmt 4.6, Leading zero omitted, Abs format (unit mm)*
G04 Created by KiCad (PCBNEW 8.0.7) date 2026-01-14 22:46:50*
%MOMM*%
%LPD*%
G01*
G04 APERTURE LIST*
G04 Aperture macros list*
%AMRoundRect*
0 Rectangle with rounded corners*
0 $1 Rounding radius*
0 $2 $3 $4 $5 $6 $7 $8 $9 X,Y pos of 4 corners*
0 Add a 4 corners polygon primitive as box body*
4,1,4,$2,$3,$4,$5,$6,$7,$8,$9,$2,$3,0*
0 Add four circle primitives for the rounded corners*
1,1,$1+$1,$2,$3*
1,1,$1+$1,$4,$5*
1,1,$1+$1,$6,$7*
1,1,$1+$1,$8,$9*
0 Add four rect primitives between the rounded corners*
20,1,$1+$1,$2,$3,$4,$5,0*
20,1,$1+$1,$4,$5,$6,$7,0*
20,1,$1+$1,$6,$7,$8,$9,0*
20,1,$1+$1,$8,$9,$2,$3,0*%
G04 Aperture macros list end*
%TA.AperFunction,ComponentPad*%
%ADD10O,1.700000X1.700000*%
%TD*%
%TA.AperFunction,ComponentPad*%
%ADD11R,1.700000X1.700000*%
%TD*%
%TA.AperFunction,ComponentPad*%
%ADD12C,1.600000*%
%TD*%
%TA.AperFunction,ComponentPad*%
%ADD13O,1.600000X1.600000*%
%TD*%
%TA.AperFunction,ComponentPad*%
%ADD14RoundRect,0.250000X-0.600000X-0.750000X0.600000X-0.750000X0.600000X0.750000X-0.600000X0.750000X0*%
%TD*%
%TA.AperFunction,ComponentPad*%
%ADD15O,1.700000X2.000000*%
%TD*%
%TA.AperFunction,ComponentPad*%
%ADD16RoundRect,0.250000X-0.350000X-0.625000X0.350000X-0.625000X0.350000X0.625000X-0.350000X0.625000X0*%
%TD*%
%TA.AperFunction,ComponentPad*%
%ADD17O,1.200000X1.750000*%
%TD*%
%TA.AperFunction,ComponentPad*%
%ADD18R,1.800000X1.800000*%
%TD*%
%TA.AperFunction,ComponentPad*%
%ADD19C,1.800000*%
%TD*%
%TA.AperFunction,ComponentPad*%
%ADD20R,1.600000X1.600000*%
%TD*%
%TA.AperFunction,ViaPad*%
%ADD21C,0.600000*%
%TD*%
%TA.AperFunction,Conductor*%
%ADD22C,0.700000*%
%TD*%
%TA.AperFunction,Conductor*%
%ADD23C,0.200000*%
%TD*%
G04 APERTURE END LIST*
D10*
%TO.P,DFPlayer,8,SPK2*%
%TO.N,unconnected-(U2_Right1-SPK2-Pad8)*%
X95700000Y-86000000D03*
%TO.P,DFPlayer,7,GND*%
%TO.N,GND*%
X93160000Y-86000000D03*
%TO.P,DFPlayer,6,SPK1*%
%TO.N,unconnected-(U2_Right1-SPK1-Pad6)*%
X90620000Y-86000000D03*
%TO.P,DFPlayer,5,DAC_I*%
%TO.N,unconnected-(U2_Right1-DAC_I-Pad5)*%
X88080000Y-86000000D03*
%TO.P,DFPlayer,4,DAC_R*%
%TO.N,unconnected-(U2_Right1-DAC_R-Pad4)*%
X85540000Y-86000000D03*
%TO.P,DFPlayer,3,TX*%
%TO.N,unconnected-(U2_Right1-TX-Pad3)*%
X83000000Y-86000000D03*
%TO.P,DFPlayer,2,RX*%
%TO.N,unconnected-(U2_Right1-RX-Pad2)*%
X80460000Y-86000000D03*
D11*
%TO.P,DFPlayer,1,VCC*%
%TO.N,unconnected-(U2_Right1-VCC-Pad1)*%
X77920000Y-86000000D03*
%TD*%
%TO.P,U2_Left1,1,VCC*%
%TO.N,VCC*%
X77920000Y-100150000D03*
D10*
%TO.P,U2_Left1,2,RX*%
%TO.N,Net-(U2_Left1-RX)*%
X80460000Y-100150000D03*
%TO.P,U2_Left1,3,TX*%
%TO.N,Net-(U1_Left1-Pin_10)*%
X83000000Y-100150000D03*
%TO.P,U2_Left1,4,DAC_R*%
%TO.N,unconnected-(U2_Left1-DAC_R-Pad4)*%
X85540000Y-100150000D03*
%TO.P,U2_Left1,5,DAC_I*%
%TO.N,unconnected-(U2_Left1-DAC_I-Pad5)*%
X88080000Y-100150000D03*
%TO.P,U2_Left1,6,SPK1*%
%TO.N,Net-(J1-Pin_1)*%
X90620000Y-100150000D03*
%TO.P,U2_Left1,7,GND*%
%TO.N,unconnected-(U2_Left1-GND-Pad7)*%
X93160000Y-100150000D03*
%TO.P,U2_Left1,8,SPK2*%
%TO.N,Net-(J1-Pin_2)*%
X95700000Y-100150000D03*
%TD*%
D11*
%TO.P,U1_Right1,1,Pin_1*%
%TO.N,GND*%
X50000000Y-50000000D03*
D10*
%TO.P,U1_Right1,2,Pin_2*%
%TO.N,unconnected-(U1_Right1-Pin_2-Pad2)*%
X52540000Y-50000000D03*
%TO.P,U1_Right1,3,Pin_3*%
%TO.N,unconnected-(U1_Right1-Pin_3-Pad3)*%
X55080000Y-50000000D03*
%TO.P,U1_Right1,4,Pin_4*%
%TO.N,unconnected-(U1_Right1-Pin_4-Pad4)*%
X57620000Y-50000000D03*
%TO.P,U1_Right1,5,Pin_5*%
%TO.N,unconnected-(U1_Right1-Pin_5-Pad5)*%
X60160000Y-50000000D03*
%TO.P,U1_Right1,6,Pin_6*%
%TO.N,unconnected-(U1_Right1-Pin_6-Pad6)*%
X62700000Y-50000000D03*
%TO.P,U1_Right1,7,Pin_7*%
%TO.N,unconnected-(U1_Right1-Pin_7-Pad7)*%
X65240000Y-50000000D03*
%TO.P,U1_Right1,8,Pin_8*%
%TO.N,Net-(J2-Pin_3)*%
X67780000Y-50000000D03*
%TO.P,U1_Right1,9,Pin_9*%
%TO.N,Net-(J2-Pin_4)*%
X70320000Y-50000000D03*
%TO.P,U1_Right1,10,Pin_10*%
%TO.N,unconnected-(U1_Right1-Pin_10-Pad10)*%
X72860000Y-50000000D03*
%TO.P,U1_Right1,11,Pin_11*%
%TO.N,unconnected-(U1_Right1-Pin_11-Pad11)*%
X75400000Y-50000000D03*
%TO.P,U1_Right1,12,Pin_12*%
%TO.N,Net-(J3-Pin_1)*%
X77940000Y-50000000D03*
%TO.P,U1_Right1,13,Pin_13*%
%TO.N,Net-(U1_Right1-Pin_13)*%
X80480000Y-50000000D03*
%TO.P,U1_Right1,14,Pin_14*%
%TO.N,unconnected-(U1_Right1-Pin_14-Pad14)*%
X83020000Y-50000000D03*
%TO.P,U1_Right1,15,Pin_15*%
%TO.N,unconnected-(U1_Right1-Pin_15-Pad15)*%
X85560000Y-50000000D03*
%TO.P,U1_Right1,16,Pin_16*%
%TO.N,unconnected-(U1_Right1-Pin_16-Pad16)*%
X88100000Y-50000000D03*
%TO.P,U1_Right1,17,Pin_17*%
%TO.N,unconnected-(U1_Right1-Pin_17-Pad17)*%
X90640000Y-50000000D03*
%TO.P,U1_Right1,18,Pin_18*%
%TO.N,unconnected-(U1_Right1-Pin_18-Pad18)*%
X93180000Y-50000000D03*
%TO.P,U1_Right1,19,Pin_19*%
%TO.N,unconnected-(U1_Right1-Pin_19-Pad19)*%
X95720000Y-50000000D03*
%TD*%
D11*
%TO.P,ESP32_WROVER,1,Pin_1*%
%TO.N,unconnected-(U1_Left1-Pin_1-Pad1)*%
X50000000Y-75400000D03*
D10*
%TO.P,ESP32_WROVER,2,Pin_2*%
%TO.N,unconnected-(U1_Left1-Pin_2-Pad2)*%
X52540000Y-75400000D03*
%TO.P,ESP32_WROVER,3,Pin_3*%
%TO.N,unconnected-(U1_Left1-Pin_3-Pad3)*%
X55080000Y-75400000D03*
%TO.P,ESP32_WROVER,4,Pin_4*%
%TO.N,unconnected-(U1_Left1-Pin_4-Pad4)*%
X57620000Y-75400000D03*
%TO.P,ESP32_WROVER,5,Pin_5*%
%TO.N,unconnected-(U1_Left1-Pin_5-Pad5)*%
X60160000Y-75400000D03*
%TO.P,ESP32_WROVER,6,Pin_6*%
%TO.N,unconnected-(U1_Left1-Pin_6-Pad6)*%
X62700000Y-75400000D03*
%TO.P,ESP32_WROVER,7,Pin_7*%
%TO.N,unconnected-(U1_Left1-Pin_7-Pad7)*%
X65240000Y-75400000D03*
%TO.P,ESP32_WROVER,8,Pin_8*%
%TO.N,unconnected-(U1_Left1-Pin_8-Pad8)*%
X67780000Y-75400000D03*
%TO.P,ESP32_WROVER,9,Pin_9*%
%TO.N,Net-(U1_Left1-Pin_9)*%
X70320000Y-75400000D03*
%TO.P,ESP32_WROVER,10,Pin_10*%
%TO.N,Net-(U1_Left1-Pin_10)*%
X72860000Y-75400000D03*
%TO.P,ESP32_WROVER,11,Pin_11*%
%TO.N,unconnected-(U1_Left1-Pin_11-Pad11)*%
X75400000Y-75400000D03*
%TO.P,ESP32_WROVER,12,Pin_12*%
%TO.N,unconnected-(U1_Left1-Pin_12-Pad12)*%
X77940000Y-75400000D03*
%TO.P,ESP32_WROVER,13,Pin_13*%
%TO.N,unconnected-(U1_Left1-Pin_13-Pad13)*%
X80480000Y-75400000D03*
%TO.P,ESP32_WROVER,14,Pin_14*%
%TO.N,unconnected-(U1_Left1-Pin_14-Pad14)*%
X83020000Y-75400000D03*
%TO.P,ESP32_WROVER,15,Pin_15*%
%TO.N,unconnected-(U1_Left1-Pin_15-Pad15)*%
X85560000Y-75400000D03*
%TO.P,ESP32_WROVER,16,Pin_16*%
%TO.N,unconnected-(U1_Left1-Pin_16-Pad16)*%
X88100000Y-75400000D03*
%TO.P,ESP32_WROVER,17,Pin_17*%
%TO.N,unconnected-(U1_Left1-Pin_17-Pad17)*%
X90640000Y-75400000D03*
%TO.P,ESP32_WROVER,18,Pin_18*%
%TO.N,unconnected-(U1_Left1-Pin_18-Pad18)*%
X93180000Y-75400000D03*
%TO.P,ESP32_WROVER,19,Pin_19*%
%TO.N,VCC*%
X95720000Y-75400000D03*
%TD*%
D12*
%TO.P,510,1*%
%TO.N,Net-(D1-A)*%
X50190000Y-86000000D03*
D13*
%TO.P,510,2*%
%TO.N,Net-(U1_Right1-Pin_13)*%
X57810000Y-86000000D03*
%TD*%
%TO.P,1k,2*%
%TO.N,Net-(U1_Left1-Pin_9)*%
X50190000Y-100000000D03*
D12*
%TO.P,1k,1*%
%TO.N,Net-(U2_Left1-RX)*%
X57810000Y-100000000D03*
%TD*%
D14*
%TO.P,Button,1,Pin_1*%
%TO.N,Net-(J3-Pin_1)*%
X54500000Y-112000000D03*
D15*
%TO.P,Button,2,Pin_2*%
%TO.N,GND*%
X57000000Y-112000000D03*
%TD*%
D16*
%TO.P,7Seg_Display,1,Pin_1*%
%TO.N,GND*%
X68000000Y-112000000D03*
D17*
%TO.P,7Seg_Display,2,Pin_2*%
%TO.N,VCC*%
X70000000Y-112000000D03*
%TO.P,7Seg_Display,3,Pin_3*%
%TO.N,Net-(J2-Pin_3)*%
X72000000Y-112000000D03*
%TO.P,7Seg_Display,4,Pin_4*%
%TO.N,Net-(J2-Pin_4)*%
X74000000Y-112000000D03*
%TD*%
D14*
%TO.P,Speaker,1,Pin_1*%
%TO.N,Net-(J1-Pin_1)*%
X84360000Y-112000000D03*
D15*
%TO.P,Speaker,2,Pin_2*%
%TO.N,Net-(J1-Pin_2)*%
X86860000Y-112000000D03*
%TD*%
D18*
%TO.P,LED,1,K*%
%TO.N,GND*%
X66000000Y-86000000D03*
D19*
%TO.P,LED,2,A*%
%TO.N,Net-(D1-A)*%
X68540000Y-86000000D03*
%TD*%
D20*
%TO.P,470u,1*%
%TO.N,VCC*%
X65500000Y-100000000D03*
D12*
%TO.P,470u,2*%
%TO.N,GND*%
X69000000Y-100000000D03*
%TD*%
D21*
%TO.N,GND*%
X46000000Y-81000000D03*
X49000000Y-111000000D03*
X45000000Y-108000000D03*
X47000000Y-92000000D03*
X61000000Y-94000000D03*
X62000000Y-105000000D03*
X79000000Y-115000000D03*
X95000000Y-110000000D03*
X81000000Y-105000000D03*
X91000000Y-94000000D03*
X91000000Y-81000000D03*
X76000000Y-81000000D03*
X63000000Y-81000000D03*
X53000000Y-81000000D03*
X76000000Y-59000000D03*
X53000000Y-45000000D03*
X63000000Y-45000000D03*
X76000000Y-45000000D03*
X91000000Y-45000000D03*
X66000000Y-68000000D03*
X53000000Y-68000000D03*
X53000000Y-58000000D03*
X64000000Y-58000000D03*
X76000000Y-68000000D03*
X91000000Y-68000000D03*
X91000000Y-59000000D03*
%TO.N,Net-(D1-A)*%
X60000000Y-90000000D03*
%TO.N,Net-(J2-Pin_4)*%
X74000000Y-100000000D03*
%TO.N,Net-(J2-Pin_3)*%
X72000000Y-100000000D03*
%TD*%
D22*
%TO.N,Net-(J1-Pin_1)*%
X90620000Y-100150000D02*
X90620000Y-105740000D01*
X90620000Y-105740000D02*
X84360000Y-112000000D01*
%TO.N,Net-(J1-Pin_2)*%
X95700000Y-103160000D02*
X86860000Y-112000000D01*
X95700000Y-100150000D02*
X95700000Y-103160000D01*
D23*
%TO.N,Net-(U1_Right1-Pin_13)*%
X69000000Y-61480000D02*
X80480000Y-50000000D01*
X58941370Y-86000000D02*
X69000000Y-75941370D01*
X57810000Y-86000000D02*
X58941370Y-86000000D01*
X69000000Y-75941370D02*
X69000000Y-61480000D01*
%TO.N,Net-(D1-A)*%
X64540000Y-90000000D02*
X60000000Y-90000000D01*
X68540000Y-86000000D02*
X64540000Y-90000000D01*
%TO.N,GND*%
X68000000Y-101000000D02*
X69000000Y-100000000D01*
X68000000Y-112000000D02*
X68000000Y-101000000D01*
X57000000Y-112000000D02*
X68000000Y-112000000D01*
%TO.N,Net-(J3-Pin_1)*%
X64090000Y-63850000D02*
X77940000Y-50000000D01*
X64090000Y-77460000D02*
X64090000Y-63850000D01*
X49090000Y-92460000D02*
X64090000Y-77460000D01*
X54500000Y-112000000D02*
X49090000Y-106590000D01*
X49090000Y-106590000D02*
X49090000Y-92460000D01*
%TO.N,Net-(J2-Pin_4)*%
X74000000Y-112000000D02*
X74000000Y-100000000D01*
%TO.N,Net-(J2-Pin_3)*%
X72000000Y-112000000D02*
X72000000Y-100000000D01*
%TO.N,Net-(U1_Left1-Pin_10)*%
X72860000Y-90010000D02*
X72860000Y-75400000D01*
X83000000Y-100150000D02*
X72860000Y-90010000D01*
%TO.N,Net-(U2_Left1-RX)*%
X79210000Y-98900000D02*
X80460000Y-100150000D01*
X58910000Y-98900000D02*
X79210000Y-98900000D01*
X57810000Y-100000000D02*
X58910000Y-98900000D01*
%TO.N,Net-(U1_Left1-Pin_9)*%
X50190000Y-95530000D02*
X50190000Y-100000000D01*
X70320000Y-75400000D02*
X50190000Y-95530000D01*
%TD*%
%TA.AperFunction,Conductor*%
%TO.N,GND*%
G36*
X66594855Y-76066546D02*
G01*
X66611575Y-76085842D01*
X66741500Y-76271395D01*
X66741505Y-76271401D01*
X66908599Y-76438495D01*
X66990499Y-76495842D01*
X67102165Y-76574032D01*
X67102167Y-76574033D01*
X67102170Y-76574035D01*
X67205565Y-76622249D01*
X67225329Y-76631465D01*
X67277768Y-76677637D01*
X67296920Y-76744831D01*
X67276704Y-76811712D01*
X67260605Y-76831528D01*
X58958341Y-85133792D01*
X58897018Y-85167277D01*
X58827326Y-85162293D01*
X58782979Y-85133792D01*
X58649141Y-84999954D01*
X58462734Y-84869432D01*
X58462732Y-84869431D01*
X58256497Y-84773261D01*
X58256488Y-84773258D01*
X58036697Y-84714366D01*
X58036687Y-84714364D01*
X57984204Y-84709772D01*
X57978077Y-84709236D01*
X57913010Y-84683784D01*
X57872031Y-84627194D01*
X57868153Y-84557432D01*
X57901203Y-84498030D01*
X64448506Y-77950728D01*
X64448511Y-77950724D01*
X64458714Y-77940520D01*
X64458716Y-77940520D01*
X64570520Y-77828716D01*
X64649577Y-77691784D01*
X64690500Y-77539057D01*
X64690500Y-76812503D01*
X64710185Y-76745464D01*
X64762989Y-76699709D01*
X64832147Y-76689765D01*
X64846593Y-76692728D01*
X64898180Y-76706550D01*
X65004592Y-76735063D01*
X65181034Y-76750500D01*
X65239999Y-76755659D01*
X65240000Y-76755659D01*
X65240001Y-76755659D01*
X65298966Y-76750500D01*
X65475408Y-76735063D01*
X65703663Y-76673903D01*
X65917830Y-76574035D01*
X66111401Y-76438495D01*
X66278495Y-76271401D01*
X66408425Y-76085842D01*
X66463002Y-76042217D01*
X66532500Y-76035023D01*
X66594855Y-76066546D01*
G37*
%TD.AperFunction*%
%TA.AperFunction,Conductor*%
G36*
X77576238Y-51300670D02*
G01*
X77704592Y-51335063D01*
X77875319Y-51350000D01*
X77939999Y-51355659D01*
X77940000Y-51355659D01*
X77967841Y-51353223D01*
X78036341Y-51366989D01*
X78086524Y-51415604D01*
X78102458Y-51483632D01*
X78079083Y-51549476D01*
X78066330Y-51564432D01*
X68631286Y-60999478D01*
X68519481Y-61111282D01*
X68519479Y-61111285D01*
X68469361Y-61198094D01*
X68469359Y-61198096D01*
X68440425Y-61248209D01*
X68440424Y-61248210D01*
X68440423Y-61248215D01*
X68399499Y-61400943D01*
X68399499Y-61400945D01*
X68399499Y-61569046D01*
X68399500Y-61569059D01*
X68399500Y-74006253D01*
X68379815Y-74073292D01*
X68327011Y-74119047D01*
X68257853Y-74128991D01*
X68243407Y-74126028D01*
X68015413Y-74064938D01*
X68015403Y-74064936D01*
X67780001Y-74044341D01*
X67779999Y-74044341D01*
X67544596Y-74064936D01*
X67544586Y-74064938D01*
X67316344Y-74126094D01*
X67316335Y-74126098D01*
X67102171Y-74225964D01*
X67102169Y-74225965D01*
X66908597Y-74361505D01*
X66741505Y-74528597D01*
X66611575Y-74714158D01*
X66556998Y-74757783D01*
X66487500Y-74764977D01*
X66425145Y-74733454D01*
X66408425Y-74714158D01*
X66278494Y-74528597D01*
X66111402Y-74361506D01*
X66111395Y-74361501D01*
X65917834Y-74225967D01*
X65917830Y-74225965D01*
X65875302Y-74206134D01*
X65703663Y-74126097D01*
X65703659Y-74126096D01*
X65703655Y-74126094D01*
X65475413Y-74064938D01*
X65475403Y-74064936D01*
X65240001Y-74044341D01*
X65239999Y-74044341D01*
X65004596Y-74064936D01*
X65004583Y-74064939D01*
X64846592Y-74107271D01*
X64776742Y-74105608D01*
X64718880Y-74066445D01*
X64691377Y-74002216D01*
X64690500Y-73987496D01*
X64690500Y-64150096D01*
X64710185Y-64083057D01*
X64726814Y-64062420D01*
X77456470Y-51332763D01*
X77517791Y-51299280D01*
X77576238Y-51300670D01*
G37*
%TD.AperFunction*%
%TA.AperFunction,Conductor*%
G36*
X99942539Y-41520185D02*
G01*
X99988294Y-41572989D01*
X99999500Y-41624500D01*
X99999500Y-118655500D01*
X99979815Y-118722539D01*
X99927011Y-118768294D01*
X99875500Y-118779500D01*
X42624500Y-118779500D01*
X42557461Y-118759815D01*
X42511706Y-118707011D01*
X42500500Y-118655500D01*
X42500500Y-115878711D01*
X44149500Y-115878711D01*
X44149500Y-116121288D01*
X44181161Y-116361785D01*
X44243947Y-116596104D01*
X44336773Y-116820205D01*
X44336776Y-116820212D01*
X44458064Y-117030289D01*
X44458066Y-117030292D01*
X44458067Y-117030293D01*
X44605733Y-117222736D01*
X44605739Y-117222743D01*
X44777256Y-117394260D01*
X44777262Y-117394265D01*
X44969711Y-117541936D01*
X45179788Y-117663224D01*
X45403900Y-117756054D01*
X45638211Y-117818838D01*
X45818586Y-117842584D01*
X45878711Y-117850500D01*
X45878712Y-117850500D01*
X46121289Y-117850500D01*
X46169388Y-117844167D01*
X46361789Y-117818838D01*
X46596100Y-117756054D01*
X46820212Y-117663224D01*
X47030289Y-117541936D01*
X47222738Y-117394265D01*
X47394265Y-117222738D01*
X47541936Y-117030289D01*
X47663224Y-116820212D01*
X47756054Y-116596100D01*
X47818838Y-116361789D01*
X47850500Y-116121288D01*
X47850500Y-115878712D01*
X47850500Y-115878711D01*
X95149500Y-115878711D01*
X95149500Y-116121288D01*
X95181161Y-116361785D01*
X95243947Y-116596104D01*
X95336773Y-116820205D01*
X95336776Y-116820212D01*
X95458064Y-117030289D01*
X95458066Y-117030292D01*
X95458067Y-117030293D01*
X95605733Y-117222736D01*
X95605739Y-117222743D01*
X95777256Y-117394260D01*
X95777262Y-117394265D01*
X95969711Y-117541936D01*
X96179788Y-117663224D01*
X96403900Y-117756054D01*
X96638211Y-117818838D01*
X96818586Y-117842584D01*
X96878711Y-117850500D01*
X96878712Y-117850500D01*
X97121289Y-117850500D01*
X97169388Y-117844167D01*
X97361789Y-117818838D01*
X97596100Y-117756054D01*
X97820212Y-117663224D01*
X98030289Y-117541936D01*
X98222738Y-117394265D01*
X98394265Y-117222738D01*
X98541936Y-117030289D01*
X98663224Y-116820212D01*
X98756054Y-116596100D01*
X98818838Y-116361789D01*
X98850500Y-116121288D01*
X98850500Y-115878712D01*
X98818838Y-115638211D01*
X98756054Y-115403900D01*
X98663224Y-115179788D01*
X98541936Y-114969711D01*
X98394265Y-114777262D01*
X98394260Y-114777256D01*
X98222743Y-114605739D01*
X98222736Y-114605733D01*
X98030293Y-114458067D01*
X98030292Y-114458066D01*
X98030289Y-114458064D01*
X97820212Y-114336776D01*
X97820205Y-114336773D01*
X97596104Y-114243947D01*
X97361785Y-114181161D01*
X97121289Y-114149500D01*
X97121288Y-114149500D01*
X96878712Y-114149500D01*
X96878711Y-114149500D01*
X96638214Y-114181161D01*
X96403895Y-114243947D01*
X96179794Y-114336773D01*
X96179785Y-114336777D01*
X95969706Y-114458067D01*
X95777263Y-114605733D01*
X95777256Y-114605739D01*
X95605739Y-114777256D01*
X95605733Y-114777263D01*
X95458067Y-114969706D01*
X95336777Y-115179785D01*
X95336773Y-115179794D01*
X95243947Y-115403895D01*
X95181161Y-115638214D01*
X95149500Y-115878711D01*
X47850500Y-115878711D01*
X47818838Y-115638211D01*
X47756054Y-115403900D01*
X47663224Y-115179788D01*
X47541936Y-114969711D01*
X47394265Y-114777262D01*
X47394260Y-114777256D01*
X47222743Y-114605739D01*
X47222736Y-114605733D01*
X47030293Y-114458067D01*
X47030292Y-114458066D01*
X47030289Y-114458064D01*
X46820212Y-114336776D01*
X46820205Y-114336773D01*
X46596104Y-114243947D01*
X46361785Y-114181161D01*
X46121289Y-114149500D01*
X46121288Y-114149500D01*
X45878712Y-114149500D01*
X45878711Y-114149500D01*
X45638214Y-114181161D01*
X45403895Y-114243947D01*
X45179794Y-114336773D01*
X45179785Y-114336777D01*
X44969706Y-114458067D01*
X44777263Y-114605733D01*
X44777256Y-114605739D01*
X44605739Y-114777256D01*
X44605733Y-114777263D01*
X44458067Y-114969706D01*
X44336777Y-115179785D01*
X44336773Y-115179794D01*
X44243947Y-115403895D01*
X44181161Y-115638214D01*
X44149500Y-115878711D01*
X42500500Y-115878711D01*
X42500500Y-106669054D01*
X48489498Y-106669054D01*
X48530423Y-106821785D01*
X48559358Y-106871900D01*
X48559359Y-106871904D01*
X48559360Y-106871904D01*
X48609479Y-106958714D01*
X48609481Y-106958717D01*
X48728349Y-107077585D01*
X48728355Y-107077590D01*
X53113181Y-111462416D01*
X53146666Y-111523739D01*
X53149500Y-111550097D01*
X53149500Y-112800001D01*
X53149501Y-112800018D01*
X53160000Y-112902796D01*
X53160001Y-112902799D01*
X53205749Y-113040856D01*
X53215186Y-113069334D01*
X53307288Y-113218656D01*
X53431344Y-113342712D01*
X53580666Y-113434814D01*
X53747203Y-113489999D01*
X53849991Y-113500500D01*
X55150008Y-113500499D01*
X55252797Y-113489999D01*
X55419334Y-113434814D01*
X55568656Y-113342712D01*
X55692712Y-113218656D01*
X55784814Y-113069334D01*
X55784814Y-113069331D01*
X55788448Y-113063441D01*
X55840395Y-113016716D01*
X55909358Y-113005493D01*
X55973440Y-113033336D01*
X55981668Y-113040856D01*
X56120535Y-113179723D01*
X56120540Y-113179727D01*
X56292442Y-113304620D01*
X56481782Y-113401095D01*
X56683871Y-113466757D01*
X56750000Y-113477231D01*
X56750000Y-112433012D01*
X56807007Y-112465925D01*
X56934174Y-112500000D01*
X57065826Y-112500000D01*
X57192993Y-112465925D01*
X57250000Y-112433012D01*
X57250000Y-113477230D01*
X57316126Y-113466757D01*
X57316129Y-113466757D01*
X57518217Y-113401095D01*
X57707557Y-113304620D01*
X57879459Y-113179727D01*
X57879464Y-113179723D01*
X58029723Y-113029464D01*
X58029727Y-113029459D01*
X58154620Y-112857557D01*
X58251095Y-112668217D01*
X58316757Y-112466130D01*
X58316757Y-112466127D01*
X58350000Y-112256246D01*
X58350000Y-112250000D01*
X57433012Y-112250000D01*
X57465925Y-112192993D01*
X57500000Y-112065826D01*
X57500000Y-111934174D01*
X57465925Y-111807007D01*
X57433012Y-111750000D01*
X58350000Y-111750000D01*
X58350000Y-111743753D01*
X58316757Y-111533872D01*
X58316757Y-111533869D01*
X58251095Y-111331782D01*
X58154620Y-111142442D01*
X58029727Y-110970540D01*
X58029723Y-110970535D01*
X57879464Y-110820276D01*
X57879459Y-110820272D01*
X57707557Y-110695379D01*
X57518215Y-110598903D01*
X57316124Y-110533241D01*
X57250000Y-110522768D01*
X57250000Y-111566988D01*
X57192993Y-111534075D01*
X57065826Y-111500000D01*
X56934174Y-111500000D01*
X56807007Y-111534075D01*
X56750000Y-111566988D01*
X56750000Y-110522768D01*
X56749999Y-110522768D01*
X56683875Y-110533241D01*
X56481784Y-110598903D01*
X56292442Y-110695379D01*
X56120541Y-110820271D01*
X55981668Y-110959144D01*
X55920345Y-110992628D01*
X55850653Y-110987644D01*
X55794720Y-110945772D01*
X55788448Y-110936558D01*
X55770004Y-110906656D01*
X55692712Y-110781344D01*
X55568656Y-110657288D01*
X55419334Y-110565186D01*
X55252797Y-110510001D01*
X55252795Y-110510000D01*
X55150016Y-110499500D01*
X53900097Y-110499500D01*
X53833058Y-110479815D01*
X53812416Y-110463181D01*
X49726819Y-106377584D01*
X49693334Y-106316261D01*
X49690500Y-106289903D01*
X49690500Y-101374136D01*
X49710185Y-101307097D01*
X49762989Y-101261342D01*
X49832147Y-101251398D01*
X49846582Y-101254358D01*
X49963308Y-101285635D01*
X50125230Y-101299801D01*
X50189998Y-101305468D01*
X50190000Y-101305468D01*
X50190002Y-101305468D01*
X50246807Y-101300498D01*
X50416692Y-101285635D01*
X50636496Y-101226739D01*
X50842734Y-101130568D01*
X51029139Y-101000047D01*
X51190047Y-100839139D01*
X51320568Y-100652734D01*
X51416739Y-100446496D01*
X51475635Y-100226692D01*
X51495468Y-100000000D01*
X51475635Y-99773308D01*
X51416739Y-99553504D01*
X51320568Y-99347266D01*
X51190047Y-99160861D01*
X51190045Y-99160858D01*
X51029140Y-98999953D01*
X50843377Y-98869881D01*
X50799752Y-98815304D01*
X50790500Y-98768306D01*
X50790500Y-95830096D01*
X50810185Y-95763057D01*
X50826814Y-95742420D01*
X56569238Y-89999996D01*
X59194435Y-89999996D01*
X59194435Y-90000003D01*
X59214630Y-90179249D01*
X59214631Y-90179254D01*
X59274211Y-90349523D01*
X59362806Y-90490520D01*
X59370184Y-90502262D01*
X59497738Y-90629816D01*
X59650478Y-90725789D01*
X59820745Y-90785368D01*
X59820750Y-90785369D01*
X59999996Y-90805565D01*
X60000000Y-90805565D01*
X60000004Y-90805565D01*
X60179249Y-90785369D01*
X60179252Y-90785368D01*
X60179255Y-90785368D01*
X60349522Y-90725789D01*
X60502262Y-90629816D01*
X60502267Y-90629810D01*
X60505097Y-90627555D01*
X60507275Y-90626665D01*
X60508158Y-90626111D01*
X60508255Y-90626265D01*
X60569783Y-90601145D01*
X60582412Y-90600500D01*
X64453331Y-90600500D01*
X64453347Y-90600501D01*
X64460943Y-90600501D01*
X64619054Y-90600501D01*
X64619057Y-90600501D01*
X64771785Y-90559577D01*
X64821904Y-90530639D01*
X64908716Y-90480520D01*
X65020520Y-90368716D01*
X65020520Y-90368714D01*
X65030728Y-90358507D01*
X65030730Y-90358504D01*
X68015160Y-87374073D01*
X68076481Y-87340590D01*
X68143102Y-87344474D01*
X68195019Y-87362298D01*
X68423951Y-87400500D01*
X68423952Y-87400500D01*
X68656048Y-87400500D01*
X68656049Y-87400500D01*
X68884981Y-87362298D01*
X69104503Y-87286936D01*
X69308626Y-87176470D01*
X69311759Y-87174032D01*
X69485893Y-87038498D01*
X69491784Y-87033913D01*
X69648979Y-86863153D01*
X69775924Y-86668849D01*
X69869157Y-86456300D01*
X69926134Y-86231305D01*
X69926516Y-86226697D01*
X69945300Y-86000006D01*
X69945300Y-85999993D01*
X69926135Y-85768702D01*
X69926133Y-85768691D01*
X69869157Y-85543699D01*
X69775924Y-85331151D01*
X69648983Y-85136852D01*
X69648980Y-85136849D01*
X69648979Y-85136847D01*
X69491784Y-84966087D01*
X69491779Y-84966083D01*
X69491777Y-84966081D01*
X69308634Y-84823535D01*
X69308628Y-84823531D01*
X69104504Y-84713064D01*
X69104495Y-84713061D01*
X68884984Y-84637702D01*
X68697404Y-84606401D01*
X68656049Y-84599500D01*
X68423951Y-84599500D01*
X68382596Y-84606401D01*
X68195015Y-84637702D01*
X67975504Y-84713061D01*
X67975495Y-84713064D01*
X67771371Y-84823531D01*
X67771365Y-84823535D01*
X67588222Y-84966081D01*
X67588215Y-84966087D01*
X67579484Y-84975572D01*
X67519595Y-85011561D01*
X67449757Y-85009458D01*
X67392143Y-84969932D01*
X67372075Y-84934918D01*
X67343355Y-84857915D01*
X67343350Y-84857906D01*
X67257190Y-84742812D01*
X67257187Y-84742809D01*
X67142093Y-84656649D01*
X67142086Y-84656645D01*
X67007379Y-84606403D01*
X67007372Y-84606401D01*
X66947844Y-84600000D01*
X66250000Y-84600000D01*
X66250000Y-85624722D01*
X66173694Y-85580667D01*
X66059244Y-85550000D01*
X65940756Y-85550000D01*
X65826306Y-85580667D01*
X65750000Y-85624722D01*
X65750000Y-84600000D01*
X65052155Y-84600000D01*
X64992627Y-84606401D01*
X64992620Y-84606403D01*
X64857913Y-84656645D01*
X64857906Y-84656649D01*
X64742812Y-84742809D01*
X64742809Y-84742812D01*
X64656649Y-84857906D01*
X64656645Y-84857913D01*
X64606403Y-84992620D01*
X64606401Y-84992627D01*
X64600000Y-85052155D01*
X64600000Y-85750000D01*
X65624722Y-85750000D01*
X65580667Y-85826306D01*
X65550000Y-85940756D01*
X65550000Y-86059244D01*
X65580667Y-86173694D01*
X65624722Y-86250000D01*
X64600000Y-86250000D01*
X64600000Y-86947844D01*
X64606401Y-87007372D01*
X64606403Y-87007379D01*
X64656645Y-87142086D01*
X64656649Y-87142093D01*
X64742809Y-87257187D01*
X64742812Y-87257190D01*
X64857906Y-87343350D01*
X64857913Y-87343354D01*
X64992620Y-87393596D01*
X64992627Y-87393598D01*
X65052155Y-87399999D01*
X65052172Y-87400000D01*
X65750000Y-87400000D01*
X65750000Y-86375277D01*
X65826306Y-86419333D01*
X65940756Y-86450000D01*
X66059244Y-86450000D01*
X66173694Y-86419333D01*
X66250000Y-86375277D01*
X66250000Y-87389402D01*
X66230315Y-87456441D01*
X66213681Y-87477083D01*
X64327584Y-89363181D01*
X64266261Y-89396666D01*
X64239903Y-89399500D01*
X60582412Y-89399500D01*
X60515373Y-89379815D01*
X60505097Y-89372445D01*
X60502263Y-89370185D01*
X60502262Y-89370184D01*
X60445496Y-89334515D01*
X60349523Y-89274211D01*
X60179254Y-89214631D01*
X60179249Y-89214630D01*
X60000004Y-89194435D01*
X59999996Y-89194435D01*
X59820750Y-89214630D01*
X59820745Y-89214631D01*
X59650476Y-89274211D01*
X59497737Y-89370184D01*
X59370184Y-89497737D01*
X59274211Y-89650476D01*
X59214631Y-89820745D01*
X59214630Y-89820750D01*
X59194435Y-89999996D01*
X56569238Y-89999996D01*
X69836470Y-76732763D01*
X69897791Y-76699280D01*
X69956238Y-76700670D01*
X70084592Y-76735063D01*
X70261034Y-76750500D01*
X70319999Y-76755659D01*
X70320000Y-76755659D01*
X70320001Y-76755659D01*
X70378966Y-76750500D01*
X70555408Y-76735063D01*
X70783663Y-76673903D01*
X70997830Y-76574035D01*
X71191401Y-76438495D01*
X71358495Y-76271401D01*
X71488425Y-76085842D01*
X71543002Y-76042217D01*
X71612500Y-76035023D01*
X71674855Y-76066546D01*
X71691575Y-76085842D01*
X71821500Y-76271395D01*
X71821505Y-76271401D01*
X71988599Y-76438495D01*
X72070499Y-76495842D01*
X72182165Y-76574032D01*
X72182167Y-76574033D01*
X72182170Y-76574035D01*
X72187898Y-76576706D01*
X72240339Y-76622872D01*
X72259500Y-76689090D01*
X72259500Y-89923330D01*
X72259499Y-89923348D01*
X72259499Y-90089054D01*
X72259498Y-90089054D01*
X72300423Y-90241785D01*
X72329358Y-90291900D01*
X72329359Y-90291904D01*
X72329360Y-90291904D01*
X72379479Y-90378714D01*
X72379481Y-90378717D01*
X72498349Y-90497585D01*
X72498355Y-90497590D01*
X80586331Y-98585567D01*
X80619816Y-98646890D01*
X80614832Y-98716582D01*
X80572960Y-98772515D01*
X80507496Y-98796932D01*
X80487846Y-98796776D01*
X80460006Y-98794341D01*
X80459999Y-98794341D01*
X80224596Y-98814936D01*
X80224583Y-98814939D01*
X80096241Y-98849327D01*
X80026392Y-98847664D01*
X79976468Y-98817233D01*
X79697590Y-98538355D01*
X79697588Y-98538352D01*
X79578717Y-98419481D01*
X79578716Y-98419480D01*
X79491904Y-98369360D01*
X79491904Y-98369359D01*
X79491900Y-98369358D01*
X79441785Y-98340423D01*
X79289057Y-98299499D01*
X79130943Y-98299499D01*
X79123347Y-98299499D01*
X79123331Y-98299500D01*
X58996669Y-98299500D01*
X58996653Y-98299499D01*
X58989057Y-98299499D01*
X58830943Y-98299499D01*
X58723587Y-98328265D01*
X58678210Y-98340424D01*
X58678209Y-98340425D01*
X58628096Y-98369359D01*
X58628095Y-98369360D01*
X58584689Y-98394420D01*
X58541285Y-98419479D01*
X58541282Y-98419481D01*
X58429478Y-98531286D01*
X58252705Y-98708058D01*
X58191382Y-98741543D01*
X58132931Y-98740152D01*
X58036697Y-98714366D01*
X58036693Y-98714365D01*
X58036692Y-98714365D01*
X58036691Y-98714364D01*
X58036686Y-98714364D01*
X57810002Y-98694532D01*
X57809998Y-98694532D01*
X57583313Y-98714364D01*
X57583302Y-98714366D01*
X57363511Y-98773258D01*
X57363502Y-98773261D01*
X57157267Y-98869431D01*
X57157265Y-98869432D01*
X56970858Y-98999954D01*
X56809954Y-99160858D01*
X56679432Y-99347265D01*
X56679431Y-99347267D01*
X56583261Y-99553502D01*
X56583258Y-99553511D01*
X56524366Y-99773302D01*
X56524364Y-99773313D01*
X56504532Y-99999998D01*
X56504532Y-100000000D01*
X56524364Y-100226686D01*
X56524366Y-100226697D01*
X56583258Y-100446488D01*
X56583261Y-100446497D01*
X56679431Y-100652732D01*
X56679432Y-100652734D01*
X56809954Y-100839141D01*
X56970858Y-101000045D01*
X56970861Y-101000047D01*
X57157266Y-101130568D01*
X57363504Y-101226739D01*
X57583308Y-101285635D01*
X57745230Y-101299801D01*
X57809998Y-101305468D01*
X57810000Y-101305468D01*
X57810002Y-101305468D01*
X57866807Y-101300498D01*
X58036692Y-101285635D01*
X58256496Y-101226739D01*
X58462734Y-101130568D01*
X58649139Y-101000047D01*
X58810047Y-100839139D01*
X58940568Y-100652734D01*
X59036739Y-100446496D01*
X59095635Y-100226692D01*
X59115468Y-100000000D01*
X59095635Y-99773308D01*
X59069847Y-99677066D01*
X59071510Y-99607218D01*
X59101942Y-99557291D01*
X59122421Y-99536814D01*
X59183746Y-99503333D01*
X59210098Y-99500500D01*
X64075500Y-99500500D01*
X64142539Y-99520185D01*
X64188294Y-99572989D01*
X64199500Y-99624500D01*
X64199500Y-100847870D01*
X64199501Y-100847876D01*
X64205908Y-100907483D01*
X64256202Y-101042328D01*
X64256206Y-101042335D01*
X64342452Y-101157544D01*
X64342455Y-101157547D01*
X64457664Y-101243793D01*
X64457671Y-101243797D01*
X64592517Y-101294091D01*
X64592516Y-101294091D01*
X64599444Y-101294835D01*
X64652127Y-101300500D01*
X66347872Y-101300499D01*
X66407483Y-101294091D01*
X66542331Y-101243796D01*
X66657546Y-101157546D01*
X66743796Y-101042331D01*
X66794091Y-100907483D01*
X66800500Y-100847873D01*
X66800499Y-99624499D01*
X66820184Y-99557461D01*
X66872987Y-99511706D01*
X66924499Y-99500500D01*
X67626381Y-99500500D01*
X67693420Y-99520185D01*
X67739175Y-99572989D01*
X67749119Y-99642147D01*
X67746156Y-99656593D01*
X67714860Y-99773390D01*
X67714858Y-99773400D01*
X67695034Y-99999997D01*
X67695034Y-100000000D01*
X67714858Y-100226599D01*
X67714860Y-100226610D01*
X67773730Y-100446317D01*
X67773735Y-100446331D01*
X67869863Y-100652478D01*
X67920974Y-100725472D01*
X68600000Y-100046446D01*
X68600000Y-100052661D01*
X68627259Y-100154394D01*
X68679920Y-100245606D01*
X68754394Y-100320080D01*
X68845606Y-100372741D01*
X68947339Y-100400000D01*
X68953553Y-100400000D01*
X68274526Y-101079025D01*
X68347513Y-101130132D01*
X68347521Y-101130136D01*
X68553668Y-101226264D01*
X68553682Y-101226269D01*
X68773389Y-101285139D01*
X68773400Y-101285141D01*
X68999998Y-101304966D01*
X69000002Y-101304966D01*
X69226599Y-101285141D01*
X69226610Y-101285139D01*
X69446317Y-101226269D01*
X69446331Y-101226264D01*
X69652478Y-101130136D01*
X69725471Y-101079024D01*
X69046447Y-100400000D01*
X69052661Y-100400000D01*
X69154394Y-100372741D01*
X69245606Y-100320080D01*
X69320080Y-100245606D01*
X69372741Y-100154394D01*
X69400000Y-100052661D01*
X69400000Y-100046447D01*
X70079024Y-100725471D01*
X70130136Y-100652478D01*
X70226264Y-100446331D01*
X70226269Y-100446317D01*
X70285139Y-100226610D01*
X70285141Y-100226599D01*
X70304966Y-100000000D01*
X70304966Y-99999997D01*
X70285141Y-99773400D01*
X70285139Y-99773390D01*
X70253844Y-99656593D01*
X70255507Y-99586744D01*
X70294669Y-99528881D01*
X70358898Y-99501377D01*
X70373619Y-99500500D01*
X71151928Y-99500500D01*
X71218967Y-99520185D01*
X71264722Y-99572989D01*
X71274666Y-99642147D01*
X71268970Y-99665454D01*
X71214632Y-99820742D01*
X71214630Y-99820750D01*
X71194435Y-99999996D01*
X71194435Y-100000000D01*
X71214630Y-100179249D01*
X71214631Y-100179254D01*
X71274211Y-100349523D01*
X71370185Y-100502263D01*
X71372445Y-100505097D01*
X71373334Y-100507275D01*
X71373889Y-100508158D01*
X71373734Y-100508255D01*
X71398855Y-100569783D01*
X71399500Y-100582412D01*
X71399500Y-110737814D01*
X71379815Y-110804853D01*
X71348387Y-110838131D01*
X71283072Y-110885585D01*
X71160588Y-111008069D01*
X71160581Y-111008078D01*
X71100317Y-111091023D01*
X71044987Y-111133689D01*
X70975374Y-111139667D01*
X70913579Y-111107061D01*
X70899683Y-111091023D01*
X70851899Y-111025257D01*
X70839414Y-111008072D01*
X70716928Y-110885586D01*
X70576788Y-110783768D01*
X70422445Y-110705127D01*
X70257701Y-110651598D01*
X70257699Y-110651597D01*
X70257698Y-110651597D01*
X70126271Y-110630781D01*
X70086611Y-110624500D01*
X69913389Y-110624500D01*
X69873728Y-110630781D01*
X69742302Y-110651597D01*
X69577552Y-110705128D01*
X69423211Y-110783768D01*
X69283073Y-110885585D01*
X69175166Y-110993492D01*
X69113843Y-111026976D01*
X69044151Y-111021992D01*
X68988218Y-110980120D01*
X68981946Y-110970906D01*
X68942317Y-110906656D01*
X68818345Y-110782684D01*
X68669124Y-110690643D01*
X68669119Y-110690641D01*
X68502697Y-110635494D01*
X68502690Y-110635493D01*
X68399986Y-110625000D01*
X68250000Y-110625000D01*
X68250000Y-111719670D01*
X68230255Y-111699925D01*
X68144745Y-111650556D01*
X68049370Y-111625000D01*
X67950630Y-111625000D01*
X67855255Y-111650556D01*
X67769745Y-111699925D01*
X67750000Y-111719670D01*
X67750000Y-110625000D01*
X67600027Y-110625000D01*
X67600012Y-110625001D01*
X67497302Y-110635494D01*
X67330880Y-110690641D01*
X67330875Y-110690643D01*
X67181654Y-110782684D01*
X67057684Y-110906654D01*
X66965643Y-111055875D01*
X66965641Y-111055880D01*
X66910494Y-111222302D01*
X66910493Y-111222309D01*
X66900000Y-111325013D01*
X66900000Y-111750000D01*
X67719670Y-111750000D01*
X67699925Y-111769745D01*
X67650556Y-111855255D01*
X67625000Y-111950630D01*
X67625000Y-112049370D01*
X67650556Y-112144745D01*
X67699925Y-112230255D01*
X67719670Y-112250000D01*
X66900001Y-112250000D01*
X66900001Y-112674986D01*
X66910494Y-112777697D01*
X66965641Y-112944119D01*
X66965643Y-112944124D01*
X67057684Y-113093345D01*
X67181654Y-113217315D01*
X67330875Y-113309356D01*
X67330880Y-113309358D01*
X67497302Y-113364505D01*
X67497309Y-113364506D01*
X67600019Y-113374999D01*
X67749999Y-113374999D01*
X67750000Y-113374998D01*
X67750000Y-112280330D01*
X67769745Y-112300075D01*
X67855255Y-112349444D01*
X67950630Y-112375000D01*
X68049370Y-112375000D01*
X68144745Y-112349444D01*
X68230255Y-112300075D01*
X68250000Y-112280330D01*
X68250000Y-113374999D01*
X68399972Y-113374999D01*
X68399986Y-113374998D01*
X68502697Y-113364505D01*
X68669119Y-113309358D01*
X68669124Y-113309356D01*
X68818345Y-113217315D01*
X68942315Y-113093345D01*
X68981945Y-113029094D01*
X69033893Y-112982368D01*
X69102855Y-112971145D01*
X69166937Y-112998988D01*
X69175166Y-113006508D01*
X69283072Y-113114414D01*
X69423212Y-113216232D01*
X69577555Y-113294873D01*
X69742299Y-113348402D01*
X69913389Y-113375500D01*
X69913390Y-113375500D01*
X70086610Y-113375500D01*
X70086611Y-113375500D01*
X70257701Y-113348402D01*
X70422445Y-113294873D01*
X70576788Y-113216232D01*
X70716928Y-113114414D01*
X70839414Y-112991928D01*
X70899682Y-112908975D01*
X70955012Y-112866311D01*
X71024626Y-112860332D01*
X71086421Y-112892938D01*
X71100315Y-112908973D01*
X71160586Y-112991928D01*
X71283072Y-113114414D01*
X71423212Y-113216232D01*
X71577555Y-113294873D01*
X71742299Y-113348402D01*
X71913389Y-113375500D01*
X71913390Y-113375500D01*
X72086610Y-113375500D01*
X72086611Y-113375500D01*
X72257701Y-113348402D01*
X72422445Y-113294873D01*
X72576788Y-113216232D01*
X72716928Y-113114414D01*
X72839414Y-112991928D01*
X72899682Y-112908975D01*
X72955012Y-112866311D01*
X73024626Y-112860332D01*
X73086421Y-112892938D01*
X73100315Y-112908973D01*
X73160586Y-112991928D01*
X73283072Y-113114414D01*
X73423212Y-113216232D01*
X73577555Y-113294873D01*
X73742299Y-113348402D01*
X73913389Y-113375500D01*
X73913390Y-113375500D01*
X74086610Y-113375500D01*
X74086611Y-113375500D01*
X74257701Y-113348402D01*
X74422445Y-113294873D01*
X74576788Y-113216232D01*
X74716928Y-113114414D01*
X74839414Y-112991928D01*
X74941232Y-112851788D01*
X75019873Y-112697445D01*
X75073402Y-112532701D01*
X75100500Y-112361611D01*
X75100500Y-111638389D01*
X75073402Y-111467299D01*
X75019873Y-111302555D01*
X74941232Y-111148212D01*
X74839414Y-111008072D01*
X74716928Y-110885586D01*
X74651613Y-110838131D01*
X74608948Y-110782801D01*
X74600500Y-110737814D01*
X74600500Y-100582412D01*
X74620185Y-100515373D01*
X74627555Y-100505097D01*
X74629810Y-100502267D01*
X74629816Y-100502262D01*
X74725789Y-100349522D01*
X74785368Y-100179255D01*
X74788665Y-100149999D01*
X74805565Y-100000000D01*
X74805565Y-99999996D01*
X74785369Y-99820750D01*
X74785367Y-99820742D01*
X74731030Y-99665454D01*
X74727469Y-99595676D01*
X74762198Y-99535048D01*
X74824191Y-99502821D01*
X74848072Y-99500500D01*
X76445500Y-99500500D01*
X76512539Y-99520185D01*
X76558294Y-99572989D01*
X76569500Y-99624500D01*
X76569500Y-101047870D01*
X76569501Y-101047876D01*
X76575908Y-101107483D01*
X76626202Y-101242328D01*
X76626206Y-101242335D01*
X76712452Y-101357544D01*
X76712455Y-101357547D01*
X76827664Y-101443793D01*
X76827671Y-101443797D01*
X76962517Y-101494091D01*
X76962516Y-101494091D01*
X76969444Y-101494835D01*
X77022127Y-101500500D01*
X78817872Y-101500499D01*
X78877483Y-101494091D01*
X79012331Y-101443796D01*
X79127546Y-101357546D01*
X79213796Y-101242331D01*
X79262810Y-101110916D01*
X79304681Y-101054984D01*
X79370145Y-101030566D01*
X79438418Y-101045417D01*
X79466673Y-101066569D01*
X79588599Y-101188495D01*
X79667573Y-101243793D01*
X79782165Y-101324032D01*
X79782167Y-101324033D01*
X79782170Y-101324035D01*
X79996337Y-101423903D01*
X80224592Y-101485063D01*
X80401034Y-101500500D01*
X80459999Y-101505659D01*
X80460000Y-101505659D01*
X80460001Y-101505659D01*
X80518966Y-101500500D01*
X80695408Y-101485063D01*
X80923663Y-101423903D01*
X81137830Y-101324035D01*
X81331401Y-101188495D01*
X81498495Y-101021401D01*
X81628425Y-100835842D01*
X81683002Y-100792217D01*
X81752500Y-100785023D01*
X81814855Y-100816546D01*
X81831575Y-100835842D01*
X81961500Y-101021395D01*
X81961505Y-101021401D01*
X82128599Y-101188495D01*
X82207573Y-101243793D01*
X82322165Y-101324032D01*
X82322167Y-101324033D01*
X82322170Y-101324035D01*
X82536337Y-101423903D01*
X82764592Y-101485063D01*
X82941034Y-101500500D01*
X82999999Y-101505659D01*
X83000000Y-101505659D01*
X83000001Y-101505659D01*
X83058966Y-101500500D01*
X83235408Y-101485063D01*
X83463663Y-101423903D01*
X83677830Y-101324035D01*
X83871401Y-101188495D01*
X84038495Y-101021401D01*
X84168425Y-100835842D01*
X84223002Y-100792217D01*
X84292500Y-100785023D01*
X84354855Y-100816546D01*
X84371575Y-100835842D01*
X84501500Y-101021395D01*
X84501505Y-101021401D01*
X84668599Y-101188495D01*
X84747573Y-101243793D01*
X84862165Y-101324032D01*
X84862167Y-101324033D01*
X84862170Y-101324035D01*
X85076337Y-101423903D01*
X85304592Y-101485063D01*
X85481034Y-101500500D01*
X85539999Y-101505659D01*
X85540000Y-101505659D01*
X85540001Y-101505659D01*
X85598966Y-101500500D01*
X85775408Y-101485063D01*
X86003663Y-101423903D01*
X86217830Y-101324035D01*
X86411401Y-101188495D01*
X86578495Y-101021401D01*
X86708425Y-100835842D01*
X86763002Y-100792217D01*
X86832500Y-100785023D01*
X86894855Y-100816546D01*
X86911575Y-100835842D01*
X87041500Y-101021395D01*
X87041505Y-101021401D01*
X87208599Y-101188495D01*
X87287573Y-101243793D01*
X87402165Y-101324032D01*
X87402167Y-101324033D01*
X87402170Y-101324035D01*
X87616337Y-101423903D01*
X87844592Y-101485063D01*
X88021034Y-101500500D01*
X88079999Y-101505659D01*
X88080000Y-101505659D01*
X88080001Y-101505659D01*
X88138966Y-101500500D01*
X88315408Y-101485063D01*
X88543663Y-101423903D01*
X88757830Y-101324035D01*
X88951401Y-101188495D01*
X89118495Y-101021401D01*
X89248425Y-100835842D01*
X89303002Y-100792217D01*
X89372500Y-100785023D01*
X89434855Y-100816546D01*
X89451575Y-100835842D01*
X89581501Y-101021396D01*
X89581506Y-101021402D01*
X89733181Y-101173077D01*
X89766666Y-101234400D01*
X89769500Y-101260758D01*
X89769500Y-105336348D01*
X89749815Y-105403387D01*
X89733181Y-105424029D01*
X84694028Y-110463181D01*
X84632705Y-110496666D01*
X84606347Y-110499500D01*
X83709998Y-110499500D01*
X83709980Y-110499501D01*
X83607203Y-110510000D01*
X83607200Y-110510001D01*
X83440668Y-110565185D01*
X83440663Y-110565187D01*
X83291342Y-110657289D01*
X83167289Y-110781342D01*
X83075187Y-110930663D01*
X83075185Y-110930668D01*
X83056305Y-110987644D01*
X83020001Y-111097203D01*
X83020001Y-111097204D01*
X83020000Y-111097204D01*
X83009500Y-111199983D01*
X83009500Y-112800001D01*
X83009501Y-112800018D01*
X83020000Y-112902796D01*
X83020001Y-112902799D01*
X83065749Y-113040856D01*
X83075186Y-113069334D01*
X83167288Y-113218656D01*
X83291344Y-113342712D01*
X83440666Y-113434814D01*
X83607203Y-113489999D01*
X83709991Y-113500500D01*
X85010008Y-113500499D01*
X85112797Y-113489999D01*
X85279334Y-113434814D01*
X85428656Y-113342712D01*
X85552712Y-113218656D01*
X85644814Y-113069334D01*
X85644814Y-113069331D01*
X85648178Y-113063879D01*
X85700126Y-113017154D01*
X85769088Y-113005931D01*
X85833170Y-113033774D01*
X85841398Y-113041294D01*
X85980213Y-113180109D01*
X86152179Y-113305048D01*
X86152181Y-113305049D01*
X86152184Y-113305051D01*
X86341588Y-113401557D01*
X86543757Y-113467246D01*
X86753713Y-113500500D01*
X86753714Y-113500500D01*
X86966286Y-113500500D01*
X86966287Y-113500500D01*
X87176243Y-113467246D01*
X87378412Y-113401557D01*
X87567816Y-113305051D01*
X87589789Y-113289086D01*
X87739786Y-113180109D01*
X87739788Y-113180106D01*
X87739792Y-113180104D01*
X87890104Y-113029792D01*
X87890106Y-113029788D01*
X87890109Y-113029786D01*
X88015048Y-112857820D01*
X88015047Y-112857820D01*
X88015051Y-112857816D01*
X88111557Y-112668412D01*
X88177246Y-112466243D01*
X88210500Y-112256287D01*
X88210500Y-111903651D01*
X88230185Y-111836612D01*
X88246819Y-111815970D01*
X96360624Y-103702165D01*
X96360627Y-103702162D01*
X96453704Y-103562863D01*
X96517816Y-103408081D01*
X96550500Y-103243767D01*
X96550500Y-103076233D01*
X96550500Y-101260758D01*
X96570185Y-101193719D01*
X96586819Y-101173077D01*
X96652413Y-101107483D01*
X96738495Y-101021401D01*
X96874035Y-100827830D01*
X96973903Y-100613663D01*
X97035063Y-100385408D01*
X97055659Y-100150000D01*
X97035063Y-99914592D01*
X96973903Y-99686337D01*
X96874035Y-99472171D01*
X96868425Y-99464158D01*
X96738494Y-99278597D01*
X96571402Y-99111506D01*
X96571395Y-99111501D01*
X96377834Y-98975967D01*
X96377830Y-98975965D01*
X96377828Y-98975964D01*
X96163663Y-98876097D01*
X96163659Y-98876096D01*
X96163655Y-98876094D01*
X95935413Y-98814938D01*
X95935403Y-98814936D01*
X95700001Y-98794341D01*
X95699999Y-98794341D01*
X95464596Y-98814936D01*
X95464586Y-98814938D01*
X95236344Y-98876094D01*
X95236335Y-98876098D01*
X95022171Y-98975964D01*
X95022169Y-98975965D01*
X94828597Y-99111505D01*
X94661505Y-99278597D01*
X94531575Y-99464158D01*
X94476998Y-99507783D01*
X94407500Y-99514977D01*
X94345145Y-99483454D01*
X94328425Y-99464158D01*
X94198494Y-99278597D01*
X94031402Y-99111506D01*
X94031395Y-99111501D01*
X93837834Y-98975967D01*
X93837830Y-98975965D01*
X93837828Y-98975964D01*
X93623663Y-98876097D01*
X93623659Y-98876096D01*
X93623655Y-98876094D01*
X93395413Y-98814938D01*
X93395403Y-98814936D01*
X93160001Y-98794341D01*
X93159999Y-98794341D01*
X92924596Y-98814936D01*
X92924586Y-98814938D01*
X92696344Y-98876094D01*
X92696335Y-98876098D01*
X92482171Y-98975964D01*
X92482169Y-98975965D01*
X92288597Y-99111505D01*
X92121505Y-99278597D01*
X91991575Y-99464158D01*
X91936998Y-99507783D01*
X91867500Y-99514977D01*
X91805145Y-99483454D01*
X91788425Y-99464158D01*
X91658494Y-99278597D01*
X91491402Y-99111506D01*
X91491395Y-99111501D01*
X91297834Y-98975967D01*
X91297830Y-98975965D01*
X91297828Y-98975964D01*
X91083663Y-98876097D01*
X91083659Y-98876096D01*
X91083655Y-98876094D01*
X90855413Y-98814938D01*
X90855403Y-98814936D01*
X90620001Y-98794341D01*
X90619999Y-98794341D01*
X90384596Y-98814936D01*
X90384586Y-98814938D01*
X90156344Y-98876094D01*
X90156335Y-98876098D01*
X89942171Y-98975964D01*
X89942169Y-98975965D01*
X89748597Y-99111505D01*
X89581505Y-99278597D01*
X89451575Y-99464158D01*
X89396998Y-99507783D01*
X89327500Y-99514977D01*
X89265145Y-99483454D01*
X89248425Y-99464158D01*
X89118494Y-99278597D01*
X88951402Y-99111506D01*
X88951395Y-99111501D01*
X88757834Y-98975967D01*
X88757830Y-98975965D01*
X88757828Y-98975964D01*
X88543663Y-98876097D01*
X88543659Y-98876096D01*
X88543655Y-98876094D01*
X88315413Y-98814938D01*
X88315403Y-98814936D01*
X88080001Y-98794341D01*
X88079999Y-98794341D01*
X87844596Y-98814936D01*
X87844586Y-98814938D01*
X87616344Y-98876094D01*
X87616335Y-98876098D01*
X87402171Y-98975964D01*
X87402169Y-98975965D01*
X87208597Y-99111505D01*
X87041505Y-99278597D01*
X86911575Y-99464158D01*
X86856998Y-99507783D01*
X86787500Y-99514977D01*
X86725145Y-99483454D01*
X86708425Y-99464158D01*
X86578494Y-99278597D01*
X86411402Y-99111506D01*
X86411395Y-99111501D01*
X86217834Y-98975967D01*
X86217830Y-98975965D01*
X86217828Y-98975964D01*
X86003663Y-98876097D01*
X86003659Y-98876096D01*
X86003655Y-98876094D01*
X85775413Y-98814938D01*
X85775403Y-98814936D01*
X85540001Y-98794341D01*
X85539999Y-98794341D01*
X85304596Y-98814936D01*
X85304586Y-98814938D01*
X85076344Y-98876094D01*
X85076335Y-98876098D01*
X84862171Y-98975964D01*
X84862169Y-98975965D01*
X84668597Y-99111505D01*
X84501505Y-99278597D01*
X84371575Y-99464158D01*
X84316998Y-99507783D01*
X84247500Y-99514977D01*
X84185145Y-99483454D01*
X84168425Y-99464158D01*
X84038494Y-99278597D01*
X83871402Y-99111506D01*
X83871395Y-99111501D01*
X83677834Y-98975967D01*
X83677830Y-98975965D01*
X83677828Y-98975964D01*
X83463663Y-98876097D01*
X83463659Y-98876096D01*
X83463655Y-98876094D01*
X83235413Y-98814938D01*
X83235403Y-98814936D01*
X83000001Y-98794341D01*
X82999999Y-98794341D01*
X82764596Y-98814936D01*
X82764586Y-98814938D01*
X82636243Y-98849327D01*
X82566393Y-98847664D01*
X82516469Y-98817233D01*
X73496819Y-89797583D01*
X73463334Y-89736260D01*
X73460500Y-89709902D01*
X73460500Y-85102135D01*
X76569500Y-85102135D01*
X76569500Y-86897870D01*
X76569501Y-86897876D01*
X76575908Y-86957483D01*
X76626202Y-87092328D01*
X76626206Y-87092335D01*
X76712452Y-87207544D01*
X76712455Y-87207547D01*
X76827664Y-87293793D01*
X76827671Y-87293797D01*
X76962517Y-87344091D01*
X76962516Y-87344091D01*
X76969444Y-87344835D01*
X77022127Y-87350500D01*
X78817872Y-87350499D01*
X78877483Y-87344091D01*
X79012331Y-87293796D01*
X79127546Y-87207546D01*
X79213796Y-87092331D01*
X79262810Y-86960916D01*
X79304681Y-86904984D01*
X79370145Y-86880566D01*
X79438418Y-86895417D01*
X79466673Y-86916569D01*
X79588599Y-87038495D01*
X79685384Y-87106265D01*
X79782165Y-87174032D01*
X79782167Y-87174033D01*
X79782170Y-87174035D01*
X79996337Y-87273903D01*
X80224592Y-87335063D01*
X80401034Y-87350500D01*
X80459999Y-87355659D01*
X80460000Y-87355659D01*
X80460001Y-87355659D01*
X80518966Y-87350500D01*
X80695408Y-87335063D01*
X80923663Y-87273903D01*
X81137830Y-87174035D01*
X81331401Y-87038495D01*
X81498495Y-86871401D01*
X81628425Y-86685842D01*
X81683002Y-86642217D01*
X81752500Y-86635023D01*
X81814855Y-86666546D01*
X81831575Y-86685842D01*
X81961500Y-86871395D01*
X81961505Y-86871401D01*
X82128599Y-87038495D01*
X82225384Y-87106265D01*
X82322165Y-87174032D01*
X82322167Y-87174033D01*
X82322170Y-87174035D01*
X82536337Y-87273903D01*
X82764592Y-87335063D01*
X82941034Y-87350500D01*
X82999999Y-87355659D01*
X83000000Y-87355659D01*
X83000001Y-87355659D01*
X83058966Y-87350500D01*
X83235408Y-87335063D01*
X83463663Y-87273903D01*
X83677830Y-87174035D01*
X83871401Y-87038495D01*
X84038495Y-86871401D01*
X84168425Y-86685842D01*
X84223002Y-86642217D01*
X84292500Y-86635023D01*
X84354855Y-86666546D01*
X84371575Y-86685842D01*
X84501500Y-86871395D01*
X84501505Y-86871401D01*
X84668599Y-87038495D01*
X84765384Y-87106265D01*
X84862165Y-87174032D01*
X84862167Y-87174033D01*
X84862170Y-87174035D01*
X85076337Y-87273903D01*
X85304592Y-87335063D01*
X85481034Y-87350500D01*
X85539999Y-87355659D01*
X85540000Y-87355659D01*
X85540001Y-87355659D01*
X85598966Y-87350500D01*
X85775408Y-87335063D01*
X86003663Y-87273903D01*
X86217830Y-87174035D01*
X86411401Y-87038495D01*
X86578495Y-86871401D01*
X86708425Y-86685842D01*
X86763002Y-86642217D01*
X86832500Y-86635023D01*
X86894855Y-86666546D01*
X86911575Y-86685842D01*
X87041500Y-86871395D01*
X87041505Y-86871401D01*
X87208599Y-87038495D01*
X87305384Y-87106265D01*
X87402165Y-87174032D01*
X87402167Y-87174033D01*
X87402170Y-87174035D01*
X87616337Y-87273903D01*
X87844592Y-87335063D01*
X88021034Y-87350500D01*
X88079999Y-87355659D01*
X88080000Y-87355659D01*
X88080001Y-87355659D01*
X88138966Y-87350500D01*
X88315408Y-87335063D01*
X88543663Y-87273903D01*
X88757830Y-87174035D01*
X88951401Y-87038495D01*
X89118495Y-86871401D01*
X89248425Y-86685842D01*
X89303002Y-86642217D01*
X89372500Y-86635023D01*
X89434855Y-86666546D01*
X89451575Y-86685842D01*
X89581500Y-86871395D01*
X89581505Y-86871401D01*
X89748599Y-87038495D01*
X89845384Y-87106265D01*
X89942165Y-87174032D01*
X89942167Y-87174033D01*
X89942170Y-87174035D01*
X90156337Y-87273903D01*
X90384592Y-87335063D01*
X90561034Y-87350500D01*
X90619999Y-87355659D01*
X90620000Y-87355659D01*
X90620001Y-87355659D01*
X90678966Y-87350500D01*
X90855408Y-87335063D01*
X91083663Y-87273903D01*
X91297830Y-87174035D01*
X91491401Y-87038495D01*
X91658495Y-86871401D01*
X91788730Y-86685405D01*
X91843307Y-86641781D01*
X91912805Y-86634587D01*
X91975160Y-86666110D01*
X91991879Y-86685405D01*
X92121890Y-86871078D01*
X92288917Y-87038105D01*
X92482421Y-87173600D01*
X92696507Y-87273429D01*
X92696516Y-87273433D01*
X92910000Y-87330634D01*
X92910000Y-86433012D01*
X92967007Y-86465925D01*
X93094174Y-86500000D01*
X93225826Y-86500000D01*
X93352993Y-86465925D01*
X93410000Y-86433012D01*
X93410000Y-87330633D01*
X93623483Y-87273433D01*
X93623492Y-87273429D01*
X93837578Y-87173600D01*
X94031082Y-87038105D01*
X94198105Y-86871082D01*
X94328119Y-86685405D01*
X94382696Y-86641781D01*
X94452195Y-86634588D01*
X94514549Y-86666110D01*
X94531269Y-86685405D01*
X94661505Y-86871401D01*
X94828599Y-87038495D01*
X94925384Y-87106265D01*
X95022165Y-87174032D01*
X95022167Y-87174033D01*
X95022170Y-87174035D01*
X95236337Y-87273903D01*
X95464592Y-87335063D01*
X95641034Y-87350500D01*
X95699999Y-87355659D01*
X95700000Y-87355659D01*
X95700001Y-87355659D01*
X95758966Y-87350500D01*
X95935408Y-87335063D01*
X96163663Y-87273903D01*
X96377830Y-87174035D01*
X96571401Y-87038495D01*
X96738495Y-86871401D01*
X96874035Y-86677830D01*
X96973903Y-86463663D01*
X97035063Y-86235408D01*
X97055659Y-86000000D01*
X97035063Y-85764592D01*
X96973903Y-85536337D01*
X96874035Y-85322171D01*
X96868731Y-85314595D01*
X96738494Y-85128597D01*
X96571402Y-84961506D01*
X96571395Y-84961501D01*
X96377834Y-84825967D01*
X96377830Y-84825965D01*
X96372608Y-84823530D01*
X96163663Y-84726097D01*
X96163659Y-84726096D01*
X96163655Y-84726094D01*
X95935413Y-84664938D01*
X95935403Y-84664936D01*
X95700001Y-84644341D01*
X95699999Y-84644341D01*
X95464596Y-84664936D01*
X95464586Y-84664938D01*
X95236344Y-84726094D01*
X95236335Y-84726098D01*
X95022171Y-84825964D01*
X95022169Y-84825965D01*
X94828597Y-84961505D01*
X94661508Y-85128594D01*
X94531269Y-85314595D01*
X94476692Y-85358219D01*
X94407193Y-85365412D01*
X94344839Y-85333890D01*
X94328119Y-85314594D01*
X94198113Y-85128926D01*
X94198108Y-85128920D01*
X94031082Y-84961894D01*
X93837578Y-84826399D01*
X93623492Y-84726570D01*
X93623486Y-84726567D01*
X93410000Y-84669364D01*
X93410000Y-85566988D01*
X93352993Y-85534075D01*
X93225826Y-85500000D01*
X93094174Y-85500000D01*
X92967007Y-85534075D01*
X92910000Y-85566988D01*
X92910000Y-84669364D01*
X92909999Y-84669364D01*
X92696513Y-84726567D01*
X92696507Y-84726570D01*
X92482422Y-84826399D01*
X92482420Y-84826400D01*
X92288926Y-84961886D01*
X92288920Y-84961891D01*
X92121891Y-85128920D01*
X92121890Y-85128922D01*
X91991880Y-85314595D01*
X91937303Y-85358219D01*
X91867804Y-85365412D01*
X91805450Y-85333890D01*
X91788730Y-85314594D01*
X91658494Y-85128597D01*
X91491402Y-84961506D01*
X91491395Y-84961501D01*
X91297834Y-84825967D01*
X91297830Y-84825965D01*
X91292608Y-84823530D01*
X91083663Y-84726097D01*
X91083659Y-84726096D01*
X91083655Y-84726094D01*
X90855413Y-84664938D01*
X90855403Y-84664936D01*
X90620001Y-84644341D01*
X90619999Y-84644341D01*
X90384596Y-84664936D01*
X90384586Y-84664938D01*
X90156344Y-84726094D01*
X90156335Y-84726098D01*
X89942171Y-84825964D01*
X89942169Y-84825965D01*
X89748597Y-84961505D01*
X89581505Y-85128597D01*
X89451575Y-85314158D01*
X89396998Y-85357783D01*
X89327500Y-85364977D01*
X89265145Y-85333454D01*
X89248425Y-85314158D01*
X89118494Y-85128597D01*
X88951402Y-84961506D01*
X88951395Y-84961501D01*
X88757834Y-84825967D01*
X88757830Y-84825965D01*
X88752608Y-84823530D01*
X88543663Y-84726097D01*
X88543659Y-84726096D01*
X88543655Y-84726094D01*
X88315413Y-84664938D01*
X88315403Y-84664936D01*
X88080001Y-84644341D01*
X88079999Y-84644341D01*
X87844596Y-84664936D01*
X87844586Y-84664938D01*
X87616344Y-84726094D01*
X87616335Y-84726098D01*
X87402171Y-84825964D01*
X87402169Y-84825965D01*
X87208597Y-84961505D01*
X87041505Y-85128597D01*
X86911575Y-85314158D01*
X86856998Y-85357783D01*
X86787500Y-85364977D01*
X86725145Y-85333454D01*
X86708425Y-85314158D01*
X86578494Y-85128597D01*
X86411402Y-84961506D01*
X86411395Y-84961501D01*
X86217834Y-84825967D01*
X86217830Y-84825965D01*
X86212608Y-84823530D01*
X86003663Y-84726097D01*
X86003659Y-84726096D01*
X86003655Y-84726094D01*
X85775413Y-84664938D01*
X85775403Y-84664936D01*
X85540001Y-84644341D01*
X85539999Y-84644341D01*
X85304596Y-84664936D01*
X85304586Y-84664938D01*
X85076344Y-84726094D01*
X85076335Y-84726098D01*
X84862171Y-84825964D01*
X84862169Y-84825965D01*
X84668597Y-84961505D01*
X84501505Y-85128597D01*
X84371575Y-85314158D01*
X84316998Y-85357783D01*
X84247500Y-85364977D01*
X84185145Y-85333454D01*
X84168425Y-85314158D01*
X84038494Y-85128597D01*
X83871402Y-84961506D01*
X83871395Y-84961501D01*
X83677834Y-84825967D01*
X83677830Y-84825965D01*
X83672608Y-84823530D01*
X83463663Y-84726097D01*
X83463659Y-84726096D01*
X83463655Y-84726094D01*
X83235413Y-84664938D01*
X83235403Y-84664936D01*
X83000001Y-84644341D01*
X82999999Y-84644341D01*
X82764596Y-84664936D01*
X82764586Y-84664938D01*
X82536344Y-84726094D01*
X82536335Y-84726098D01*
X82322171Y-84825964D01*
X82322169Y-84825965D01*
X82128597Y-84961505D01*
X81961505Y-85128597D01*
X81831575Y-85314158D01*
X81776998Y-85357783D01*
X81707500Y-85364977D01*
X81645145Y-85333454D01*
X81628425Y-85314158D01*
X81498494Y-85128597D01*
X81331402Y-84961506D01*
X81331395Y-84961501D01*
X81137834Y-84825967D01*
X81137830Y-84825965D01*
X81132608Y-84823530D01*
X80923663Y-84726097D01*
X80923659Y-84726096D01*
X80923655Y-84726094D01*
X80695413Y-84664938D01*
X80695403Y-84664936D01*
X80460001Y-84644341D01*
X80459999Y-84644341D01*
X80224596Y-84664936D01*
X80224586Y-84664938D01*
X79996344Y-84726094D01*
X79996335Y-84726098D01*
X79782171Y-84825964D01*
X79782169Y-84825965D01*
X79588600Y-84961503D01*
X79466673Y-85083430D01*
X79405350Y-85116914D01*
X79335658Y-85111930D01*
X79279725Y-85070058D01*
X79262810Y-85039081D01*
X79213797Y-84907671D01*
X79213793Y-84907664D01*
X79127547Y-84792455D01*
X79127544Y-84792452D01*
X79012335Y-84706206D01*
X79012328Y-84706202D01*
X78877482Y-84655908D01*
X78877483Y-84655908D01*
X78817883Y-84649501D01*
X78817881Y-84649500D01*
X78817873Y-84649500D01*
X78817864Y-84649500D01*
X77022129Y-84649500D01*
X77022123Y-84649501D01*
X76962516Y-84655908D01*
X76827671Y-84706202D01*
X76827664Y-84706206D01*
X76712455Y-84792452D01*
X76712452Y-84792455D01*
X76626206Y-84907664D01*
X76626202Y-84907671D01*
X76575908Y-85042517D01*
X76569501Y-85102116D01*
X76569500Y-85102135D01*
X73460500Y-85102135D01*
X73460500Y-76689090D01*
X73480185Y-76622051D01*
X73532101Y-76576706D01*
X73537830Y-76574035D01*
X73731401Y-76438495D01*
X73898495Y-76271401D01*
X74028425Y-76085842D01*
X74083002Y-76042217D01*
X74152500Y-76035023D01*
X74214855Y-76066546D01*
X74231575Y-76085842D01*
X74361500Y-76271395D01*
X74361505Y-76271401D01*
X74528599Y-76438495D01*
X74610499Y-76495842D01*
X74722165Y-76574032D01*
X74722167Y-76574033D01*
X74722170Y-76574035D01*
X74936337Y-76673903D01*
X74936343Y-76673904D01*
X74936344Y-76673905D01*
X74961797Y-76680725D01*
X75164592Y-76735063D01*
X75341034Y-76750500D01*
X75399999Y-76755659D01*
X75400000Y-76755659D01*
X75400001Y-76755659D01*
X75458966Y-76750500D01*
X75635408Y-76735063D01*
X75863663Y-76673903D01*
X76077830Y-76574035D01*
X76271401Y-76438495D01*
X76438495Y-76271401D01*
X76568425Y-76085842D01*
X76623002Y-76042217D01*
X76692500Y-76035023D01*
X76754855Y-76066546D01*
X76771575Y-76085842D01*
X76901500Y-76271395D01*
X76901505Y-76271401D01*
X77068599Y-76438495D01*
X77150499Y-76495842D01*
X77262165Y-76574032D01*
X77262167Y-76574033D01*
X77262170Y-76574035D01*
X77476337Y-76673903D01*
X77476343Y-76673904D01*
X77476344Y-76673905D01*
X77501797Y-76680725D01*
X77704592Y-76735063D01*
X77881034Y-76750500D01*
X77939999Y-76755659D01*
X77940000Y-76755659D01*
X77940001Y-76755659D01*
X77998966Y-76750500D01*
X78175408Y-76735063D01*
X78403663Y-76673903D01*
X78617830Y-76574035D01*
X78811401Y-76438495D01*
X78978495Y-76271401D01*
X79108425Y-76085842D01*
X79163002Y-76042217D01*
X79232500Y-76035023D01*
X79294855Y-76066546D01*
X79311575Y-76085842D01*
X79441500Y-76271395D01*
X79441505Y-76271401D01*
X79608599Y-76438495D01*
X79690499Y-76495842D01*
X79802165Y-76574032D01*
X79802167Y-76574033D01*
X79802170Y-76574035D01*
X80016337Y-76673903D01*
X80016343Y-76673904D01*
X80016344Y-76673905D01*
X80041797Y-76680725D01*
X80244592Y-76735063D01*
X80421034Y-76750500D01*
X80479999Y-76755659D01*
X80480000Y-76755659D01*
X80480001Y-76755659D01*
X80538966Y-76750500D01*
X80715408Y-76735063D01*
X80943663Y-76673903D01*
X81157830Y-76574035D01*
X81351401Y-76438495D01*
X81518495Y-76271401D01*
X81648425Y-76085842D01*
X81703002Y-76042217D01*
X81772500Y-76035023D01*
X81834855Y-76066546D01*
X81851575Y-76085842D01*
X81981500Y-76271395D01*
X81981505Y-76271401D01*
X82148599Y-76438495D01*
X82230499Y-76495842D01*
X82342165Y-76574032D01*
X82342167Y-76574033D01*
X82342170Y-76574035D01*
X82556337Y-76673903D01*
X82556343Y-76673904D01*
X82556344Y-76673905D01*
X82581797Y-76680725D01*
X82784592Y-76735063D01*
X82961034Y-76750500D01*
X83019999Y-76755659D01*
X83020000Y-76755659D01*
X83020001Y-76755659D01*
X83078966Y-76750500D01*
X83255408Y-76735063D01*
X83483663Y-76673903D01*
X83697830Y-76574035D01*
X83891401Y-76438495D01*
X84058495Y-76271401D01*
X84188425Y-76085842D01*
X84243002Y-76042217D01*
X84312500Y-76035023D01*
X84374855Y-76066546D01*
X84391575Y-76085842D01*
X84521500Y-76271395D01*
X84521505Y-76271401D01*
X84688599Y-76438495D01*
X84770499Y-76495842D01*
X84882165Y-76574032D01*
X84882167Y-76574033D01*
X84882170Y-76574035D01*
X85096337Y-76673903D01*
X85096343Y-76673904D01*
X85096344Y-76673905D01*
X85121797Y-76680725D01*
X85324592Y-76735063D01*
X85501034Y-76750500D01*
X85559999Y-76755659D01*
X85560000Y-76755659D01*
X85560001Y-76755659D01*
X85618966Y-76750500D01*
X85795408Y-76735063D01*
X86023663Y-76673903D01*
X86237830Y-76574035D01*
X86431401Y-76438495D01*
X86598495Y-76271401D01*
X86728425Y-76085842D01*
X86783002Y-76042217D01*
X86852500Y-76035023D01*
X86914855Y-76066546D01*
X86931575Y-76085842D01*
X87061500Y-76271395D01*
X87061505Y-76271401D01*
X87228599Y-76438495D01*
X87310499Y-76495842D01*
X87422165Y-76574032D01*
X87422167Y-76574033D01*
X87422170Y-76574035D01*
X87636337Y-76673903D01*
X87636343Y-76673904D01*
X87636344Y-76673905D01*
X87661797Y-76680725D01*
X87864592Y-76735063D01*
X88041034Y-76750500D01*
X88099999Y-76755659D01*
X88100000Y-76755659D01*
X88100001Y-76755659D01*
X88158966Y-76750500D01*
X88335408Y-76735063D01*
X88563663Y-76673903D01*
X88777830Y-76574035D01*
X88971401Y-76438495D01*
X89138495Y-76271401D01*
X89268425Y-76085842D01*
X89323002Y-76042217D01*
X89392500Y-76035023D01*
X89454855Y-76066546D01*
X89471575Y-76085842D01*
X89601500Y-76271395D01*
X89601505Y-76271401D01*
X89768599Y-76438495D01*
X89850499Y-76495842D01*
X89962165Y-76574032D01*
X89962167Y-76574033D01*
X89962170Y-76574035D01*
X90176337Y-76673903D01*
X90176343Y-76673904D01*
X90176344Y-76673905D01*
X90201797Y-76680725D01*
X90404592Y-76735063D01*
X90581034Y-76750500D01*
X90639999Y-76755659D01*
X90640000Y-76755659D01*
X90640001Y-76755659D01*
X90698966Y-76750500D01*
X90875408Y-76735063D01*
X91103663Y-76673903D01*
X91317830Y-76574035D01*
X91511401Y-76438495D01*
X91678495Y-76271401D01*
X91808425Y-76085842D01*
X91863002Y-76042217D01*
X91932500Y-76035023D01*
X91994855Y-76066546D01*
X92011575Y-76085842D01*
X92141500Y-76271395D01*
X92141505Y-76271401D01*
X92308599Y-76438495D01*
X92390499Y-76495842D01*
X92502165Y-76574032D01*
X92502167Y-76574033D01*
X92502170Y-76574035D01*
X92716337Y-76673903D01*
X92716343Y-76673904D01*
X92716344Y-76673905D01*
X92741797Y-76680725D01*
X92944592Y-76735063D01*
X93121034Y-76750500D01*
X93179999Y-76755659D01*
X93180000Y-76755659D01*
X93180001Y-76755659D01*
X93238966Y-76750500D01*
X93415408Y-76735063D01*
X93643663Y-76673903D01*
X93857830Y-76574035D01*
X94051401Y-76438495D01*
X94218495Y-76271401D01*
X94348425Y-76085842D01*
X94403002Y-76042217D01*
X94472500Y-76035023D01*
X94534855Y-76066546D01*
X94551575Y-76085842D01*
X94681500Y-76271395D01*
X94681505Y-76271401D01*
X94848599Y-76438495D01*
X94930499Y-76495842D01*
X95042165Y-76574032D01*
X95042167Y-76574033D01*
X95042170Y-76574035D01*
X95256337Y-76673903D01*
X95256343Y-76673904D01*
X95256344Y-76673905D01*
X95281797Y-76680725D01*
X95484592Y-76735063D01*
X95661034Y-76750500D01*
X95719999Y-76755659D01*
X95720000Y-76755659D01*
X95720001Y-76755659D01*
X95778966Y-76750500D01*
X95955408Y-76735063D01*
X96183663Y-76673903D01*
X96397830Y-76574035D01*
X96591401Y-76438495D01*
X96758495Y-76271401D01*
X96894035Y-76077830D01*
X96993903Y-75863663D01*
X97055063Y-75635408D01*
X97075659Y-75400000D01*
X97055063Y-75164592D01*
X96993903Y-74936337D01*
X96894035Y-74722171D01*
X96888425Y-74714158D01*
X96758494Y-74528597D01*
X96591402Y-74361506D01*
X96591395Y-74361501D01*
X96397834Y-74225967D01*
X96397830Y-74225965D01*
X96355302Y-74206134D01*
X96183663Y-74126097D01*
X96183659Y-74126096D01*
X96183655Y-74126094D01*
X95955413Y-74064938D01*
X95955403Y-74064936D01*
X95720001Y-74044341D01*
X95719999Y-74044341D01*
X95484596Y-74064936D01*
X95484586Y-74064938D01*
X95256344Y-74126094D01*
X95256335Y-74126098D01*
X95042171Y-74225964D01*
X95042169Y-74225965D01*
X94848597Y-74361505D01*
X94681505Y-74528597D01*
X94551575Y-74714158D01*
X94496998Y-74757783D01*
X94427500Y-74764977D01*
X94365145Y-74733454D01*
X94348425Y-74714158D01*
X94218494Y-74528597D01*
X94051402Y-74361506D01*
X94051395Y-74361501D01*
X93857834Y-74225967D01*
X93857830Y-74225965D01*
X93815302Y-74206134D01*
X93643663Y-74126097D01*
X93643659Y-74126096D01*
X93643655Y-74126094D01*
X93415413Y-74064938D01*
X93415403Y-74064936D01*
X93180001Y-74044341D01*
X93179999Y-74044341D01*
X92944596Y-74064936D01*
X92944586Y-74064938D01*
X92716344Y-74126094D01*
X92716335Y-74126098D01*
X92502171Y-74225964D01*
X92502169Y-74225965D01*
X92308597Y-74361505D01*
X92141505Y-74528597D01*
X92011575Y-74714158D01*
X91956998Y-74757783D01*
X91887500Y-74764977D01*
X91825145Y-74733454D01*
X91808425Y-74714158D01*
X91678494Y-74528597D01*
X91511402Y-74361506D01*
X91511395Y-74361501D01*
X91317834Y-74225967D01*
X91317830Y-74225965D01*
X91275302Y-74206134D01*
X91103663Y-74126097D01*
X91103659Y-74126096D01*
X91103655Y-74126094D01*
X90875413Y-74064938D01*
X90875403Y-74064936D01*
X90640001Y-74044341D01*
X90639999Y-74044341D01*
X90404596Y-74064936D01*
X90404586Y-74064938D01*
X90176344Y-74126094D01*
X90176335Y-74126098D01*
X89962171Y-74225964D01*
X89962169Y-74225965D01*
X89768597Y-74361505D01*
X89601505Y-74528597D01*
X89471575Y-74714158D01*
X89416998Y-74757783D01*
X89347500Y-74764977D01*
X89285145Y-74733454D01*
X89268425Y-74714158D01*
X89138494Y-74528597D01*
X88971402Y-74361506D01*
X88971395Y-74361501D01*
X88777834Y-74225967D01*
X88777830Y-74225965D01*
X88735302Y-74206134D01*
X88563663Y-74126097D01*
X88563659Y-74126096D01*
X88563655Y-74126094D01*
X88335413Y-74064938D01*
X88335403Y-74064936D01*
X88100001Y-74044341D01*
X88099999Y-74044341D01*
X87864596Y-74064936D01*
X87864586Y-74064938D01*
X87636344Y-74126094D01*
X87636335Y-74126098D01*
X87422171Y-74225964D01*
X87422169Y-74225965D01*
X87228597Y-74361505D01*
X87061505Y-74528597D01*
X86931575Y-74714158D01*
X86876998Y-74757783D01*
X86807500Y-74764977D01*
X86745145Y-74733454D01*
X86728425Y-74714158D01*
X86598494Y-74528597D01*
X86431402Y-74361506D01*
X86431395Y-74361501D01*
X86237834Y-74225967D01*
X86237830Y-74225965D01*
X86195302Y-74206134D01*
X86023663Y-74126097D01*
X86023659Y-74126096D01*
X86023655Y-74126094D01*
X85795413Y-74064938D01*
X85795403Y-74064936D01*
X85560001Y-74044341D01*
X85559999Y-74044341D01*
X85324596Y-74064936D01*
X85324586Y-74064938D01*
X85096344Y-74126094D01*
X85096335Y-74126098D01*
X84882171Y-74225964D01*
X84882169Y-74225965D01*
X84688597Y-74361505D01*
X84521505Y-74528597D01*
X84391575Y-74714158D01*
X84336998Y-74757783D01*
X84267500Y-74764977D01*
X84205145Y-74733454D01*
X84188425Y-74714158D01*
X84058494Y-74528597D01*
X83891402Y-74361506D01*
X83891395Y-74361501D01*
X83697834Y-74225967D01*
X83697830Y-74225965D01*
X83655302Y-74206134D01*
X83483663Y-74126097D01*
X83483659Y-74126096D01*
X83483655Y-74126094D01*
X83255413Y-74064938D01*
X83255403Y-74064936D01*
X83020001Y-74044341D01*
X83019999Y-74044341D01*
X82784596Y-74064936D01*
X82784586Y-74064938D01*
X82556344Y-74126094D01*
X82556335Y-74126098D01*
X82342171Y-74225964D01*
X82342169Y-74225965D01*
X82148597Y-74361505D01*
X81981505Y-74528597D01*
X81851575Y-74714158D01*
X81796998Y-74757783D01*
X81727500Y-74764977D01*
X81665145Y-74733454D01*
X81648425Y-74714158D01*
X81518494Y-74528597D01*
X81351402Y-74361506D01*
X81351395Y-74361501D01*
X81157834Y-74225967D01*
X81157830Y-74225965D01*
X81115302Y-74206134D01*
X80943663Y-74126097D01*
X80943659Y-74126096D01*
X80943655Y-74126094D01*
X80715413Y-74064938D01*
X80715403Y-74064936D01*
X80480001Y-74044341D01*
X80479999Y-74044341D01*
X80244596Y-74064936D01*
X80244586Y-74064938D01*
X80016344Y-74126094D01*
X80016335Y-74126098D01*
X79802171Y-74225964D01*
X79802169Y-74225965D01*
X79608597Y-74361505D01*
X79441505Y-74528597D01*
X79311575Y-74714158D01*
X79256998Y-74757783D01*
X79187500Y-74764977D01*
X79125145Y-74733454D01*
X79108425Y-74714158D01*
X78978494Y-74528597D01*
X78811402Y-74361506D01*
X78811395Y-74361501D01*
X78617834Y-74225967D01*
X78617830Y-74225965D01*
X78575302Y-74206134D01*
X78403663Y-74126097D01*
X78403659Y-74126096D01*
X78403655Y-74126094D01*
X78175413Y-74064938D01*
X78175403Y-74064936D01*
X77940001Y-74044341D01*
X77939999Y-74044341D01*
X77704596Y-74064936D01*
X77704586Y-74064938D01*
X77476344Y-74126094D01*
X77476335Y-74126098D01*
X77262171Y-74225964D01*
X77262169Y-74225965D01*
X77068597Y-74361505D01*
X76901505Y-74528597D01*
X76771575Y-74714158D01*
X76716998Y-74757783D01*
X76647500Y-74764977D01*
X76585145Y-74733454D01*
X76568425Y-74714158D01*
X76438494Y-74528597D01*
X76271402Y-74361506D01*
X76271395Y-74361501D01*
X76077834Y-74225967D01*
X76077830Y-74225965D01*
X76035302Y-74206134D01*
X75863663Y-74126097D01*
X75863659Y-74126096D01*
X75863655Y-74126094D01*
X75635413Y-74064938D01*
X75635403Y-74064936D01*
X75400001Y-74044341D01*
X75399999Y-74044341D01*
X75164596Y-74064936D01*
X75164586Y-74064938D01*
X74936344Y-74126094D01*
X74936335Y-74126098D01*
X74722171Y-74225964D01*
X74722169Y-74225965D01*
X74528597Y-74361505D01*
X74361505Y-74528597D01*
X74231575Y-74714158D01*
X74176998Y-74757783D01*
X74107500Y-74764977D01*
X74045145Y-74733454D01*
X74028425Y-74714158D01*
X73898494Y-74528597D01*
X73731402Y-74361506D01*
X73731395Y-74361501D01*
X73537834Y-74225967D01*
X73537830Y-74225965D01*
X73495302Y-74206134D01*
X73323663Y-74126097D01*
X73323659Y-74126096D01*
X73323655Y-74126094D01*
X73095413Y-74064938D01*
X73095403Y-74064936D01*
X72860001Y-74044341D01*
X72859999Y-74044341D01*
X72624596Y-74064936D01*
X72624586Y-74064938D01*
X72396344Y-74126094D01*
X72396335Y-74126098D01*
X72182171Y-74225964D01*
X72182169Y-74225965D01*
X71988597Y-74361505D01*
X71821505Y-74528597D01*
X71691575Y-74714158D01*
X71636998Y-74757783D01*
X71567500Y-74764977D01*
X71505145Y-74733454D01*
X71488425Y-74714158D01*
X71358494Y-74528597D01*
X71191402Y-74361506D01*
X71191395Y-74361501D01*
X70997834Y-74225967D01*
X70997830Y-74225965D01*
X70955302Y-74206134D01*
X70783663Y-74126097D01*
X70783659Y-74126096D01*
X70783655Y-74126094D01*
X70555413Y-74064938D01*
X70555403Y-74064936D01*
X70320001Y-74044341D01*
X70319999Y-74044341D01*
X70084596Y-74064936D01*
X70084586Y-74064938D01*
X69856344Y-74126094D01*
X69856335Y-74126098D01*
X69776905Y-74163137D01*
X69707827Y-74173629D01*
X69644043Y-74145109D01*
X69605804Y-74086633D01*
X69600500Y-74050755D01*
X69600500Y-61780097D01*
X69620185Y-61713058D01*
X69636819Y-61692416D01*
X70329757Y-60999478D01*
X79996470Y-51332764D01*
X80057791Y-51299281D01*
X80116242Y-51300672D01*
X80171990Y-51315609D01*
X80244592Y-51335063D01*
X80415319Y-51350000D01*
X80479999Y-51355659D01*
X80480000Y-51355659D01*
X80480001Y-51355659D01*
X80544681Y-51350000D01*
X80715408Y-51335063D01*
X80943663Y-51273903D01*
X81157830Y-51174035D01*
X81351401Y-51038495D01*
X81518495Y-50871401D01*
X81648425Y-50685842D01*
X81703002Y-50642217D01*
X81772500Y-50635023D01*
X81834855Y-50666546D01*
X81851575Y-50685842D01*
X81981500Y-50871395D01*
X81981505Y-50871401D01*
X82148599Y-51038495D01*
X82225135Y-51092086D01*
X82342165Y-51174032D01*
X82342167Y-51174033D01*
X82342170Y-51174035D01*
X82556337Y-51273903D01*
X82784592Y-51335063D01*
X82955319Y-51350000D01*
X83019999Y-51355659D01*
X83020000Y-51355659D01*
X83020001Y-51355659D01*
X83084681Y-51350000D01*
X83255408Y-51335063D01*
X83483663Y-51273903D01*
X83697830Y-51174035D01*
X83891401Y-51038495D01*
X84058495Y-50871401D01*
X84188425Y-50685842D01*
X84243002Y-50642217D01*
X84312500Y-50635023D01*
X84374855Y-50666546D01*
X84391575Y-50685842D01*
X84521500Y-50871395D01*
X84521505Y-50871401D01*
X84688599Y-51038495D01*
X84765135Y-51092086D01*
X84882165Y-51174032D01*
X84882167Y-51174033D01*
X84882170Y-51174035D01*
X85096337Y-51273903D01*
X85324592Y-51335063D01*
X85495319Y-51350000D01*
X85559999Y-51355659D01*
X85560000Y-51355659D01*
X85560001Y-51355659D01*
X85624681Y-51350000D01*
X85795408Y-51335063D01*
X86023663Y-51273903D01*
X86237830Y-51174035D01*
X86431401Y-51038495D01*
X86598495Y-50871401D01*
X86728425Y-50685842D01*
X86783002Y-50642217D01*
X86852500Y-50635023D01*
X86914855Y-50666546D01*
X86931575Y-50685842D01*
X87061500Y-50871395D01*
X87061505Y-50871401D01*
X87228599Y-51038495D01*
X87305135Y-51092086D01*
X87422165Y-51174032D01*
X87422167Y-51174033D01*
X87422170Y-51174035D01*
X87636337Y-51273903D01*
X87864592Y-51335063D01*
X88035319Y-51350000D01*
X88099999Y-51355659D01*
X88100000Y-51355659D01*
X88100001Y-51355659D01*
X88164681Y-51350000D01*
X88335408Y-51335063D01*
X88563663Y-51273903D01*
X88777830Y-51174035D01*
X88971401Y-51038495D01*
X89138495Y-50871401D01*
X89268425Y-50685842D01*
X89323002Y-50642217D01*
X89392500Y-50635023D01*
X89454855Y-50666546D01*
X89471575Y-50685842D01*
X89601500Y-50871395D01*
X89601505Y-50871401D01*
X89768599Y-51038495D01*
X89845135Y-51092086D01*
X89962165Y-51174032D01*
X89962167Y-51174033D01*
X89962170Y-51174035D01*
X90176337Y-51273903D01*
X90404592Y-51335063D01*
X90575319Y-51350000D01*
X90639999Y-51355659D01*
X90640000Y-51355659D01*
X90640001Y-51355659D01*
X90704681Y-51350000D01*
X90875408Y-51335063D01*
X91103663Y-51273903D01*
X91317830Y-51174035D01*
X91511401Y-51038495D01*
X91678495Y-50871401D01*
X91808425Y-50685842D01*
X91863002Y-50642217D01*
X91932500Y-50635023D01*
X91994855Y-50666546D01*
X92011575Y-50685842D01*
X92141500Y-50871395D01*
X92141505Y-50871401D01*
X92308599Y-51038495D01*
X92385135Y-51092086D01*
X92502165Y-51174032D01*
X92502167Y-51174033D01*
X92502170Y-51174035D01*
X92716337Y-51273903D01*
X92944592Y-51335063D01*
X93115319Y-51350000D01*
X93179999Y-51355659D01*
X93180000Y-51355659D01*
X93180001Y-51355659D01*
X93244681Y-51350000D01*
X93415408Y-51335063D01*
X93643663Y-51273903D01*
X93857830Y-51174035D01*
X94051401Y-51038495D01*
X94218495Y-50871401D01*
X94348425Y-50685842D01*
X94403002Y-50642217D01*
X94472500Y-50635023D01*
X94534855Y-50666546D01*
X94551575Y-50685842D01*
X94681500Y-50871395D01*
X94681505Y-50871401D01*
X94848599Y-51038495D01*
X94925135Y-51092086D01*
X95042165Y-51174032D01*
X95042167Y-51174033D01*
X95042170Y-51174035D01*
X95256337Y-51273903D01*
X95484592Y-51335063D01*
X95655319Y-51350000D01*
X95719999Y-51355659D01*
X95720000Y-51355659D01*
X95720001Y-51355659D01*
X95784681Y-51350000D01*
X95955408Y-51335063D01*
X96183663Y-51273903D01*
X96397830Y-51174035D01*
X96591401Y-51038495D01*
X96758495Y-50871401D01*
X96894035Y-50677830D01*
X96993903Y-50463663D01*
X97055063Y-50235408D01*
X97075659Y-50000000D01*
X97055063Y-49764592D01*
X96993903Y-49536337D01*
X96894035Y-49322171D01*
X96888425Y-49314158D01*
X96758494Y-49128597D01*
X96591402Y-48961506D01*
X96591395Y-48961501D01*
X96397834Y-48825967D01*
X96397830Y-48825965D01*
X96326727Y-48792809D01*
X96183663Y-48726097D01*
X96183659Y-48726096D01*
X96183655Y-48726094D01*
X95955413Y-48664938D01*
X95955403Y-48664936D01*
X95720001Y-48644341D01*
X95719999Y-48644341D01*
X95484596Y-48664936D01*
X95484586Y-48664938D01*
X95256344Y-48726094D01*
X95256335Y-48726098D01*
X95042171Y-48825964D01*
X95042169Y-48825965D01*
X94848597Y-48961505D01*
X94681505Y-49128597D01*
X94551575Y-49314158D01*
X94496998Y-49357783D01*
X94427500Y-49364977D01*
X94365145Y-49333454D01*
X94348425Y-49314158D01*
X94218494Y-49128597D01*
X94051402Y-48961506D01*
X94051395Y-48961501D01*
X93857834Y-48825967D01*
X93857830Y-48825965D01*
X93786727Y-48792809D01*
X93643663Y-48726097D01*
X93643659Y-48726096D01*
X93643655Y-48726094D01*
X93415413Y-48664938D01*
X93415403Y-48664936D01*
X93180001Y-48644341D01*
X93179999Y-48644341D01*
X92944596Y-48664936D01*
X92944586Y-48664938D01*
X92716344Y-48726094D01*
X92716335Y-48726098D01*
X92502171Y-48825964D01*
X92502169Y-48825965D01*
X92308597Y-48961505D01*
X92141505Y-49128597D01*
X92011575Y-49314158D01*
X91956998Y-49357783D01*
X91887500Y-49364977D01*
X91825145Y-49333454D01*
X91808425Y-49314158D01*
X91678494Y-49128597D01*
X91511402Y-48961506D01*
X91511395Y-48961501D01*
X91317834Y-48825967D01*
X91317830Y-48825965D01*
X91246727Y-48792809D01*
X91103663Y-48726097D01*
X91103659Y-48726096D01*
X91103655Y-48726094D01*
X90875413Y-48664938D01*
X90875403Y-48664936D01*
X90640001Y-48644341D01*
X90639999Y-48644341D01*
X90404596Y-48664936D01*
X90404586Y-48664938D01*
X90176344Y-48726094D01*
X90176335Y-48726098D01*
X89962171Y-48825964D01*
X89962169Y-48825965D01*
X89768597Y-48961505D01*
X89601505Y-49128597D01*
X89471575Y-49314158D01*
X89416998Y-49357783D01*
X89347500Y-49364977D01*
X89285145Y-49333454D01*
X89268425Y-49314158D01*
X89138494Y-49128597D01*
X88971402Y-48961506D01*
X88971395Y-48961501D01*
X88777834Y-48825967D01*
X88777830Y-48825965D01*
X88706727Y-48792809D01*
X88563663Y-48726097D01*
X88563659Y-48726096D01*
X88563655Y-48726094D01*
X88335413Y-48664938D01*
X88335403Y-48664936D01*
X88100001Y-48644341D01*
X88099999Y-48644341D01*
X87864596Y-48664936D01*
X87864586Y-48664938D01*
X87636344Y-48726094D01*
X87636335Y-48726098D01*
X87422171Y-48825964D01*
X87422169Y-48825965D01*
X87228597Y-48961505D01*
X87061505Y-49128597D01*
X86931575Y-49314158D01*
X86876998Y-49357783D01*
X86807500Y-49364977D01*
X86745145Y-49333454D01*
X86728425Y-49314158D01*
X86598494Y-49128597D01*
X86431402Y-48961506D01*
X86431395Y-48961501D01*
X86237834Y-48825967D01*
X86237830Y-48825965D01*
X86166727Y-48792809D01*
X86023663Y-48726097D01*
X86023659Y-48726096D01*
X86023655Y-48726094D01*
X85795413Y-48664938D01*
X85795403Y-48664936D01*
X85560001Y-48644341D01*
X85559999Y-48644341D01*
X85324596Y-48664936D01*
X85324586Y-48664938D01*
X85096344Y-48726094D01*
X85096335Y-48726098D01*
X84882171Y-48825964D01*
X84882169Y-48825965D01*
X84688597Y-48961505D01*
X84521505Y-49128597D01*
X84391575Y-49314158D01*
X84336998Y-49357783D01*
X84267500Y-49364977D01*
X84205145Y-49333454D01*
X84188425Y-49314158D01*
X84058494Y-49128597D01*
X83891402Y-48961506D01*
X83891395Y-48961501D01*
X83697834Y-48825967D01*
X83697830Y-48825965D01*
X83626727Y-48792809D01*
X83483663Y-48726097D01*
X83483659Y-48726096D01*
X83483655Y-48726094D01*
X83255413Y-48664938D01*
X83255403Y-48664936D01*
X83020001Y-48644341D01*
X83019999Y-48644341D01*
X82784596Y-48664936D01*
X82784586Y-48664938D01*
X82556344Y-48726094D01*
X82556335Y-48726098D01*
X82342171Y-48825964D01*
X82342169Y-48825965D01*
X82148597Y-48961505D01*
X81981505Y-49128597D01*
X81851575Y-49314158D01*
X81796998Y-49357783D01*
X81727500Y-49364977D01*
X81665145Y-49333454D01*
X81648425Y-49314158D01*
X81518494Y-49128597D01*
X81351402Y-48961506D01*
X81351395Y-48961501D01*
X81157834Y-48825967D01*
X81157830Y-48825965D01*
X81086727Y-48792809D01*
X80943663Y-48726097D01*
X80943659Y-48726096D01*
X80943655Y-48726094D01*
X80715413Y-48664938D01*
X80715403Y-48664936D01*
X80480001Y-48644341D01*
X80479999Y-48644341D01*
X80244596Y-48664936D01*
X80244586Y-48664938D01*
X80016344Y-48726094D01*
X80016335Y-48726098D01*
X79802171Y-48825964D01*
X79802169Y-48825965D01*
X79608597Y-48961505D01*
X79441505Y-49128597D01*
X79311575Y-49314158D01*
X79256998Y-49357783D01*
X79187500Y-49364977D01*
X79125145Y-49333454D01*
X79108425Y-49314158D01*
X78978494Y-49128597D01*
X78811402Y-48961506D01*
X78811395Y-48961501D01*
X78617834Y-48825967D01*
X78617830Y-48825965D01*
X78546727Y-48792809D01*
X78403663Y-48726097D01*
X78403659Y-48726096D01*
X78403655Y-48726094D01*
X78175413Y-48664938D01*
X78175403Y-48664936D01*
X77940001Y-48644341D01*
X77939999Y-48644341D01*
X77704596Y-48664936D01*
X77704586Y-48664938D01*
X77476344Y-48726094D01*
X77476335Y-48726098D01*
X77262171Y-48825964D01*
X77262169Y-48825965D01*
X77068597Y-48961505D01*
X76901505Y-49128597D01*
X76771575Y-49314158D01*
X76716998Y-49357783D01*
X76647500Y-49364977D01*
X76585145Y-49333454D01*
X76568425Y-49314158D01*
X76438494Y-49128597D01*
X76271402Y-48961506D01*
X76271395Y-48961501D01*
X76077834Y-48825967D01*
X76077830Y-48825965D01*
X76006727Y-48792809D01*
X75863663Y-48726097D01*
X75863659Y-48726096D01*
X75863655Y-48726094D01*
X75635413Y-48664938D01*
X75635403Y-48664936D01*
X75400001Y-48644341D01*
X75399999Y-48644341D01*
X75164596Y-48664936D01*
X75164586Y-48664938D01*
X74936344Y-48726094D01*
X74936335Y-48726098D01*
X74722171Y-48825964D01*
X74722169Y-48825965D01*
X74528597Y-48961505D01*
X74361505Y-49128597D01*
X74231575Y-49314158D01*
X74176998Y-49357783D01*
X74107500Y-49364977D01*
X74045145Y-49333454D01*
X74028425Y-49314158D01*
X73898494Y-49128597D01*
X73731402Y-48961506D01*
X73731395Y-48961501D01*
X73537834Y-48825967D01*
X73537830Y-48825965D01*
X73466727Y-48792809D01*
X73323663Y-48726097D01*
X73323659Y-48726096D01*
X73323655Y-48726094D01*
X73095413Y-48664938D01*
X73095403Y-48664936D01*
X72860001Y-48644341D01*
X72859999Y-48644341D01*
X72624596Y-48664936D01*
X72624586Y-48664938D01*
X72396344Y-48726094D01*
X72396335Y-48726098D01*
X72182171Y-48825964D01*
X72182169Y-48825965D01*
X71988597Y-48961505D01*
X71821505Y-49128597D01*
X71691575Y-49314158D01*
X71636998Y-49357783D01*
X71567500Y-49364977D01*
X71505145Y-49333454D01*
X71488425Y-49314158D01*
X71358494Y-49128597D01*
X71191402Y-48961506D01*
X71191395Y-48961501D01*
X70997834Y-48825967D01*
X70997830Y-48825965D01*
X70926727Y-48792809D01*
X70783663Y-48726097D01*
X70783659Y-48726096D01*
X70783655Y-48726094D01*
X70555413Y-48664938D01*
X70555403Y-48664936D01*
X70320001Y-48644341D01*
X70319999Y-48644341D01*
X70084596Y-48664936D01*
X70084586Y-48664938D01*
X69856344Y-48726094D01*
X69856335Y-48726098D01*
X69642171Y-48825964D01*
X69642169Y-48825965D01*
X69448597Y-48961505D01*
X69281505Y-49128597D01*
X69151575Y-49314158D01*
X69096998Y-49357783D01*
X69027500Y-49364977D01*
X68965145Y-49333454D01*
X68948425Y-49314158D01*
X68818494Y-49128597D01*
X68651402Y-48961506D01*
X68651395Y-48961501D01*
X68457834Y-48825967D01*
X68457830Y-48825965D01*
X68386727Y-48792809D01*
X68243663Y-48726097D01*
X68243659Y-48726096D01*
X68243655Y-48726094D01*
X68015413Y-48664938D01*
X68015403Y-48664936D01*
X67780001Y-48644341D01*
X67779999Y-48644341D01*
X67544596Y-48664936D01*
X67544586Y-48664938D01*
X67316344Y-48726094D01*
X67316335Y-48726098D01*
X67102171Y-48825964D01*
X67102169Y-48825965D01*
X66908597Y-48961505D01*
X66741505Y-49128597D01*
X66611575Y-49314158D01*
X66556998Y-49357783D01*
X66487500Y-49364977D01*
X66425145Y-49333454D01*
X66408425Y-49314158D01*
X66278494Y-49128597D01*
X66111402Y-48961506D01*
X66111395Y-48961501D01*
X65917834Y-48825967D01*
X65917830Y-48825965D01*
X65846727Y-48792809D01*
X65703663Y-48726097D01*
X65703659Y-48726096D01*
X65703655Y-48726094D01*
X65475413Y-48664938D01*
X65475403Y-48664936D01*
X65240001Y-48644341D01*
X65239999Y-48644341D01*
X65004596Y-48664936D01*
X65004586Y-48664938D01*
X64776344Y-48726094D01*
X64776335Y-48726098D01*
X64562171Y-48825964D01*
X64562169Y-48825965D01*
X64368597Y-48961505D01*
X64201505Y-49128597D01*
X64071575Y-49314158D01*
X64016998Y-49357783D01*
X63947500Y-49364977D01*
X63885145Y-49333454D01*
X63868425Y-49314158D01*
X63738494Y-49128597D01*
X63571402Y-48961506D01*
X63571395Y-48961501D01*
X63377834Y-48825967D01*
X63377830Y-48825965D01*
X63306727Y-48792809D01*
X63163663Y-48726097D01*
X63163659Y-48726096D01*
X63163655Y-48726094D01*
X62935413Y-48664938D01*
X62935403Y-48664936D01*
X62700001Y-48644341D01*
X62699999Y-48644341D01*
X62464596Y-48664936D01*
X62464586Y-48664938D01*
X62236344Y-48726094D01*
X62236335Y-48726098D01*
X62022171Y-48825964D01*
X62022169Y-48825965D01*
X61828597Y-48961505D01*
X61661505Y-49128597D01*
X61531575Y-49314158D01*
X61476998Y-49357783D01*
X61407500Y-49364977D01*
X61345145Y-49333454D01*
X61328425Y-49314158D01*
X61198494Y-49128597D01*
X61031402Y-48961506D01*
X61031395Y-48961501D01*
X60837834Y-48825967D01*
X60837830Y-48825965D01*
X60766727Y-48792809D01*
X60623663Y-48726097D01*
X60623659Y-48726096D01*
X60623655Y-48726094D01*
X60395413Y-48664938D01*
X60395403Y-48664936D01*
X60160001Y-48644341D01*
X60159999Y-48644341D01*
X59924596Y-48664936D01*
X59924586Y-48664938D01*
X59696344Y-48726094D01*
X59696335Y-48726098D01*
X59482171Y-48825964D01*
X59482169Y-48825965D01*
X59288597Y-48961505D01*
X59121505Y-49128597D01*
X58991575Y-49314158D01*
X58936998Y-49357783D01*
X58867500Y-49364977D01*
X58805145Y-49333454D01*
X58788425Y-49314158D01*
X58658494Y-49128597D01*
X58491402Y-48961506D01*
X58491395Y-48961501D01*
X58297834Y-48825967D01*
X58297830Y-48825965D01*
X58226727Y-48792809D01*
X58083663Y-48726097D01*
X58083659Y-48726096D01*
X58083655Y-48726094D01*
X57855413Y-48664938D01*
X57855403Y-48664936D01*
X57620001Y-48644341D01*
X57619999Y-48644341D01*
X57384596Y-48664936D01*
X57384586Y-48664938D01*
X57156344Y-48726094D01*
X57156335Y-48726098D01*
X56942171Y-48825964D01*
X56942169Y-48825965D01*
X56748597Y-48961505D01*
X56581505Y-49128597D01*
X56451575Y-49314158D01*
X56396998Y-49357783D01*
X56327500Y-49364977D01*
X56265145Y-49333454D01*
X56248425Y-49314158D01*
X56118494Y-49128597D01*
X55951402Y-48961506D01*
X55951395Y-48961501D01*
X55757834Y-48825967D01*
X55757830Y-48825965D01*
X55686727Y-48792809D01*
X55543663Y-48726097D01*
X55543659Y-48726096D01*
X55543655Y-48726094D01*
X55315413Y-48664938D01*
X55315403Y-48664936D01*
X55080001Y-48644341D01*
X55079999Y-48644341D01*
X54844596Y-48664936D01*
X54844586Y-48664938D01*
X54616344Y-48726094D01*
X54616335Y-48726098D01*
X54402171Y-48825964D01*
X54402169Y-48825965D01*
X54208597Y-48961505D01*
X54041505Y-49128597D01*
X53911575Y-49314158D01*
X53856998Y-49357783D01*
X53787500Y-49364977D01*
X53725145Y-49333454D01*
X53708425Y-49314158D01*
X53578494Y-49128597D01*
X53411402Y-48961506D01*
X53411395Y-48961501D01*
X53217834Y-48825967D01*
X53217830Y-48825965D01*
X53146727Y-48792809D01*
X53003663Y-48726097D01*
X53003659Y-48726096D01*
X53003655Y-48726094D01*
X52775413Y-48664938D01*
X52775403Y-48664936D01*
X52540001Y-48644341D01*
X52539999Y-48644341D01*
X52304596Y-48664936D01*
X52304586Y-48664938D01*
X52076344Y-48726094D01*
X52076335Y-48726098D01*
X51862171Y-48825964D01*
X51862169Y-48825965D01*
X51668600Y-48961503D01*
X51546284Y-49083819D01*
X51484961Y-49117303D01*
X51415269Y-49112319D01*
X51359336Y-49070447D01*
X51342421Y-49039470D01*
X51293354Y-48907913D01*
X51293350Y-48907906D01*
X51207190Y-48792812D01*
X51207187Y-48792809D01*
X51092093Y-48706649D01*
X51092086Y-48706645D01*
X50957379Y-48656403D01*
X50957372Y-48656401D01*
X50897844Y-48650000D01*
X50250000Y-48650000D01*
X50250000Y-49566988D01*
X50192993Y-49534075D01*
X50065826Y-49500000D01*
X49934174Y-49500000D01*
X49807007Y-49534075D01*
X49750000Y-49566988D01*
X49750000Y-48650000D01*
X49102155Y-48650000D01*
X49042627Y-48656401D01*
X49042620Y-48656403D01*
X48907913Y-48706645D01*
X48907906Y-48706649D01*
X48792812Y-48792809D01*
X48792809Y-48792812D01*
X48706649Y-48907906D01*
X48706645Y-48907913D01*
X48656403Y-49042620D01*
X48656401Y-49042627D01*
X48650000Y-49102155D01*
X48650000Y-49750000D01*
X49566988Y-49750000D01*
X49534075Y-49807007D01*
X49500000Y-49934174D01*
X49500000Y-50065826D01*
X49534075Y-50192993D01*
X49566988Y-50250000D01*
X48650000Y-50250000D01*
X48650000Y-50897844D01*
X48656401Y-50957372D01*
X48656403Y-50957379D01*
X48706645Y-51092086D01*
X48706649Y-51092093D01*
X48792809Y-51207187D01*
X48792812Y-51207190D01*
X48907906Y-51293350D01*
X48907913Y-51293354D01*
X49042620Y-51343596D01*
X49042627Y-51343598D01*
X49102155Y-51349999D01*
X49102172Y-51350000D01*
X49750000Y-51350000D01*
X49750000Y-50433012D01*
X49807007Y-50465925D01*
X49934174Y-50500000D01*
X50065826Y-50500000D01*
X50192993Y-50465925D01*
X50250000Y-50433012D01*
X50250000Y-51350000D01*
X50897828Y-51350000D01*
X50897844Y-51349999D01*
X50957372Y-51343598D01*
X50957379Y-51343596D01*
X51092086Y-51293354D01*
X51092093Y-51293350D01*
X51207187Y-51207190D01*
X51207190Y-51207187D01*
X51293350Y-51092093D01*
X51293354Y-51092086D01*
X51342422Y-50960529D01*
X51384293Y-50904595D01*
X51449757Y-50880178D01*
X51518030Y-50895030D01*
X51546285Y-50916181D01*
X51668599Y-51038495D01*
X51745135Y-51092086D01*
X51862165Y-51174032D01*
X51862167Y-51174033D01*
X51862170Y-51174035D01*
X52076337Y-51273903D01*
X52304592Y-51335063D01*
X52475319Y-51350000D01*
X52539999Y-51355659D01*
X52540000Y-51355659D01*
X52540001Y-51355659D01*
X52604681Y-51350000D01*
X52775408Y-51335063D01*
X53003663Y-51273903D01*
X53217830Y-51174035D01*
X53411401Y-51038495D01*
X53578495Y-50871401D01*
X53708425Y-50685842D01*
X53763002Y-50642217D01*
X53832500Y-50635023D01*
X53894855Y-50666546D01*
X53911575Y-50685842D01*
X54041500Y-50871395D01*
X54041505Y-50871401D01*
X54208599Y-51038495D01*
X54285135Y-51092086D01*
X54402165Y-51174032D01*
X54402167Y-51174033D01*
X54402170Y-51174035D01*
X54616337Y-51273903D01*
X54844592Y-51335063D01*
X55015319Y-51350000D01*
X55079999Y-51355659D01*
X55080000Y-51355659D01*
X55080001Y-51355659D01*
X55144681Y-51350000D01*
X55315408Y-51335063D01*
X55543663Y-51273903D01*
X55757830Y-51174035D01*
X55951401Y-51038495D01*
X56118495Y-50871401D01*
X56248425Y-50685842D01*
X56303002Y-50642217D01*
X56372500Y-50635023D01*
X56434855Y-50666546D01*
X56451575Y-50685842D01*
X56581500Y-50871395D01*
X56581505Y-50871401D01*
X56748599Y-51038495D01*
X56825135Y-51092086D01*
X56942165Y-51174032D01*
X56942167Y-51174033D01*
X56942170Y-51174035D01*
X57156337Y-51273903D01*
X57384592Y-51335063D01*
X57555319Y-51350000D01*
X57619999Y-51355659D01*
X57620000Y-51355659D01*
X57620001Y-51355659D01*
X57684681Y-51350000D01*
X57855408Y-51335063D01*
X58083663Y-51273903D01*
X58297830Y-51174035D01*
X58491401Y-51038495D01*
X58658495Y-50871401D01*
X58788425Y-50685842D01*
X58843002Y-50642217D01*
X58912500Y-50635023D01*
X58974855Y-50666546D01*
X58991575Y-50685842D01*
X59121500Y-50871395D01*
X59121505Y-50871401D01*
X59288599Y-51038495D01*
X59365135Y-51092086D01*
X59482165Y-51174032D01*
X59482167Y-51174033D01*
X59482170Y-51174035D01*
X59696337Y-51273903D01*
X59924592Y-51335063D01*
X60095319Y-51350000D01*
X60159999Y-51355659D01*
X60160000Y-51355659D01*
X60160001Y-51355659D01*
X60224681Y-51350000D01*
X60395408Y-51335063D01*
X60623663Y-51273903D01*
X60837830Y-51174035D01*
X61031401Y-51038495D01*
X61198495Y-50871401D01*
X61328425Y-50685842D01*
X61383002Y-50642217D01*
X61452500Y-50635023D01*
X61514855Y-50666546D01*
X61531575Y-50685842D01*
X61661500Y-50871395D01*
X61661505Y-50871401D01*
X61828599Y-51038495D01*
X61905135Y-51092086D01*
X62022165Y-51174032D01*
X62022167Y-51174033D01*
X62022170Y-51174035D01*
X62236337Y-51273903D01*
X62464592Y-51335063D01*
X62635319Y-51350000D01*
X62699999Y-51355659D01*
X62700000Y-51355659D01*
X62700001Y-51355659D01*
X62764681Y-51350000D01*
X62935408Y-51335063D01*
X63163663Y-51273903D01*
X63377830Y-51174035D01*
X63571401Y-51038495D01*
X63738495Y-50871401D01*
X63868425Y-50685842D01*
X63923002Y-50642217D01*
X63992500Y-50635023D01*
X64054855Y-50666546D01*
X64071575Y-50685842D01*
X64201500Y-50871395D01*
X64201505Y-50871401D01*
X64368599Y-51038495D01*
X64445135Y-51092086D01*
X64562165Y-51174032D01*
X64562167Y-51174033D01*
X64562170Y-51174035D01*
X64776337Y-51273903D01*
X65004592Y-51335063D01*
X65175319Y-51350000D01*
X65239999Y-51355659D01*
X65240000Y-51355659D01*
X65240001Y-51355659D01*
X65304681Y-51350000D01*
X65475408Y-51335063D01*
X65703663Y-51273903D01*
X65917830Y-51174035D01*
X66111401Y-51038495D01*
X66278495Y-50871401D01*
X66408425Y-50685842D01*
X66463002Y-50642217D01*
X66532500Y-50635023D01*
X66594855Y-50666546D01*
X66611575Y-50685842D01*
X66741500Y-50871395D01*
X66741505Y-50871401D01*
X66908599Y-51038495D01*
X66985135Y-51092086D01*
X67102165Y-51174032D01*
X67102167Y-51174033D01*
X67102170Y-51174035D01*
X67316337Y-51273903D01*
X67544592Y-51335063D01*
X67715319Y-51350000D01*
X67779999Y-51355659D01*
X67780000Y-51355659D01*
X67780001Y-51355659D01*
X67844681Y-51350000D01*
X68015408Y-51335063D01*
X68243663Y-51273903D01*
X68457830Y-51174035D01*
X68651401Y-51038495D01*
X68818495Y-50871401D01*
X68948425Y-50685842D01*
X69003002Y-50642217D01*
X69072500Y-50635023D01*
X69134855Y-50666546D01*
X69151575Y-50685842D01*
X69281500Y-50871395D01*
X69281505Y-50871401D01*
X69448599Y-51038495D01*
X69525135Y-51092086D01*
X69642165Y-51174032D01*
X69642167Y-51174033D01*
X69642170Y-51174035D01*
X69856337Y-51273903D01*
X70084592Y-51335063D01*
X70255319Y-51350000D01*
X70319999Y-51355659D01*
X70320000Y-51355659D01*
X70320001Y-51355659D01*
X70384681Y-51350000D01*
X70555408Y-51335063D01*
X70783663Y-51273903D01*
X70997830Y-51174035D01*
X71191401Y-51038495D01*
X71358495Y-50871401D01*
X71488425Y-50685842D01*
X71543002Y-50642217D01*
X71612500Y-50635023D01*
X71674855Y-50666546D01*
X71691575Y-50685842D01*
X71821500Y-50871395D01*
X71821505Y-50871401D01*
X71988599Y-51038495D01*
X72065135Y-51092086D01*
X72182165Y-51174032D01*
X72182167Y-51174033D01*
X72182170Y-51174035D01*
X72396337Y-51273903D01*
X72624592Y-51335063D01*
X72795319Y-51350000D01*
X72859999Y-51355659D01*
X72860000Y-51355659D01*
X72860001Y-51355659D01*
X72924681Y-51350000D01*
X73095408Y-51335063D01*
X73323663Y-51273903D01*
X73537830Y-51174035D01*
X73731401Y-51038495D01*
X73898495Y-50871401D01*
X74028425Y-50685842D01*
X74083002Y-50642217D01*
X74152500Y-50635023D01*
X74214855Y-50666546D01*
X74231575Y-50685842D01*
X74361500Y-50871395D01*
X74361505Y-50871401D01*
X74528599Y-51038495D01*
X74605135Y-51092086D01*
X74722165Y-51174032D01*
X74722167Y-51174033D01*
X74722170Y-51174035D01*
X74936337Y-51273903D01*
X75164592Y-51335063D01*
X75335319Y-51350000D01*
X75399999Y-51355659D01*
X75400000Y-51355659D01*
X75400001Y-51355659D01*
X75414106Y-51354424D01*
X75427842Y-51353223D01*
X75496342Y-51366989D01*
X75546525Y-51415604D01*
X75562459Y-51483633D01*
X75539084Y-51549476D01*
X75526331Y-51564432D01*
X63721286Y-63369478D01*
X63609481Y-63481282D01*
X63609479Y-63481285D01*
X63559361Y-63568094D01*
X63559359Y-63568096D01*
X63530425Y-63618209D01*
X63530424Y-63618210D01*
X63530423Y-63618215D01*
X63489499Y-63770943D01*
X63489499Y-63770945D01*
X63489499Y-63939046D01*
X63489500Y-63939059D01*
X63489500Y-74083396D01*
X63469815Y-74150435D01*
X63417011Y-74196190D01*
X63347853Y-74206134D01*
X63313096Y-74195778D01*
X63163669Y-74126099D01*
X63163655Y-74126094D01*
X62935413Y-74064938D01*
X62935403Y-74064936D01*
X62700001Y-74044341D01*
X62699999Y-74044341D01*
X62464596Y-74064936D01*
X62464586Y-74064938D01*
X62236344Y-74126094D01*
X62236335Y-74126098D01*
X62022171Y-74225964D01*
X62022169Y-74225965D01*
X61828597Y-74361505D01*
X61661505Y-74528597D01*
X61531575Y-74714158D01*
X61476998Y-74757783D01*
X61407500Y-74764977D01*
X61345145Y-74733454D01*
X61328425Y-74714158D01*
X61198494Y-74528597D01*
X61031402Y-74361506D01*
X61031395Y-74361501D01*
X60837834Y-74225967D01*
X60837830Y-74225965D01*
X60795302Y-74206134D01*
X60623663Y-74126097D01*
X60623659Y-74126096D01*
X60623655Y-74126094D01*
X60395413Y-74064938D01*
X60395403Y-74064936D01*
X60160001Y-74044341D01*
X60159999Y-74044341D01*
X59924596Y-74064936D01*
X59924586Y-74064938D01*
X59696344Y-74126094D01*
X59696335Y-74126098D01*
X59482171Y-74225964D01*
X59482169Y-74225965D01*
X59288597Y-74361505D01*
X59121505Y-74528597D01*
X58991575Y-74714158D01*
X58936998Y-74757783D01*
X58867500Y-74764977D01*
X58805145Y-74733454D01*
X58788425Y-74714158D01*
X58658494Y-74528597D01*
X58491402Y-74361506D01*
X58491395Y-74361501D01*
X58297834Y-74225967D01*
X58297830Y-74225965D01*
X58255302Y-74206134D01*
X58083663Y-74126097D01*
X58083659Y-74126096D01*
X58083655Y-74126094D01*
X57855413Y-74064938D01*
X57855403Y-74064936D01*
X57620001Y-74044341D01*
X57619999Y-74044341D01*
X57384596Y-74064936D01*
X57384586Y-74064938D01*
X57156344Y-74126094D01*
X57156335Y-74126098D01*
X56942171Y-74225964D01*
X56942169Y-74225965D01*
X56748597Y-74361505D01*
X56581505Y-74528597D01*
X56451575Y-74714158D01*
X56396998Y-74757783D01*
X56327500Y-74764977D01*
X56265145Y-74733454D01*
X56248425Y-74714158D01*
X56118494Y-74528597D01*
X55951402Y-74361506D01*
X55951395Y-74361501D01*
X55757834Y-74225967D01*
X55757830Y-74225965D01*
X55715302Y-74206134D01*
X55543663Y-74126097D01*
X55543659Y-74126096D01*
X55543655Y-74126094D01*
X55315413Y-74064938D01*
X55315403Y-74064936D01*
X55080001Y-74044341D01*
X55079999Y-74044341D01*
X54844596Y-74064936D01*
X54844586Y-74064938D01*
X54616344Y-74126094D01*
X54616335Y-74126098D01*
X54402171Y-74225964D01*
X54402169Y-74225965D01*
X54208597Y-74361505D01*
X54041505Y-74528597D01*
X53911575Y-74714158D01*
X53856998Y-74757783D01*
X53787500Y-74764977D01*
X53725145Y-74733454D01*
X53708425Y-74714158D01*
X53578494Y-74528597D01*
X53411402Y-74361506D01*
X53411395Y-74361501D01*
X53217834Y-74225967D01*
X53217830Y-74225965D01*
X53175302Y-74206134D01*
X53003663Y-74126097D01*
X53003659Y-74126096D01*
X53003655Y-74126094D01*
X52775413Y-74064938D01*
X52775403Y-74064936D01*
X52540001Y-74044341D01*
X52539999Y-74044341D01*
X52304596Y-74064936D01*
X52304586Y-74064938D01*
X52076344Y-74126094D01*
X52076335Y-74126098D01*
X51862171Y-74225964D01*
X51862169Y-74225965D01*
X51668600Y-74361503D01*
X51546673Y-74483430D01*
X51485350Y-74516914D01*
X51415658Y-74511930D01*
X51359725Y-74470058D01*
X51342810Y-74439081D01*
X51293797Y-74307671D01*
X51293793Y-74307664D01*
X51207547Y-74192455D01*
X51207544Y-74192452D01*
X51092335Y-74106206D01*
X51092328Y-74106202D01*
X50957482Y-74055908D01*
X50957483Y-74055908D01*
X50897883Y-74049501D01*
X50897881Y-74049500D01*
X50897873Y-74049500D01*
X50897864Y-74049500D01*
X49102129Y-74049500D01*
X49102123Y-74049501D01*
X49042516Y-74055908D01*
X48907671Y-74106202D01*
X48907664Y-74106206D01*
X48792455Y-74192452D01*
X48792452Y-74192455D01*
X48706206Y-74307664D01*
X48706202Y-74307671D01*
X48655908Y-74442517D01*
X48649501Y-74502116D01*
X48649500Y-74502135D01*
X48649500Y-76297870D01*
X48649501Y-76297876D01*
X48655908Y-76357483D01*
X48706202Y-76492328D01*
X48706206Y-76492335D01*
X48792452Y-76607544D01*
X48792455Y-76607547D01*
X48907664Y-76693793D01*
X48907671Y-76693797D01*
X49042517Y-76744091D01*
X49042516Y-76744091D01*
X49049400Y-76744831D01*
X49102127Y-76750500D01*
X50897872Y-76750499D01*
X50957483Y-76744091D01*
X51092331Y-76693796D01*
X51207546Y-76607546D01*
X51293796Y-76492331D01*
X51342810Y-76360916D01*
X51384681Y-76304984D01*
X51450145Y-76280566D01*
X51518418Y-76295417D01*
X51546673Y-76316569D01*
X51668599Y-76438495D01*
X51750499Y-76495842D01*
X51862165Y-76574032D01*
X51862167Y-76574033D01*
X51862170Y-76574035D01*
X52076337Y-76673903D01*
X52076343Y-76673904D01*
X52076344Y-76673905D01*
X52101797Y-76680725D01*
X52304592Y-76735063D01*
X52481034Y-76750500D01*
X52539999Y-76755659D01*
X52540000Y-76755659D01*
X52540001Y-76755659D01*
X52598966Y-76750500D01*
X52775408Y-76735063D01*
X53003663Y-76673903D01*
X53217830Y-76574035D01*
X53411401Y-76438495D01*
X53578495Y-76271401D01*
X53708425Y-76085842D01*
X53763002Y-76042217D01*
X53832500Y-76035023D01*
X53894855Y-76066546D01*
X53911575Y-76085842D01*
X54041500Y-76271395D01*
X54041505Y-76271401D01*
X54208599Y-76438495D01*
X54290499Y-76495842D01*
X54402165Y-76574032D01*
X54402167Y-76574033D01*
X54402170Y-76574035D01*
X54616337Y-76673903D01*
X54616343Y-76673904D01*
X54616344Y-76673905D01*
X54641797Y-76680725D01*
X54844592Y-76735063D01*
X55021034Y-76750500D01*
X55079999Y-76755659D01*
X55080000Y-76755659D01*
X55080001Y-76755659D01*
X55138966Y-76750500D01*
X55315408Y-76735063D01*
X55543663Y-76673903D01*
X55757830Y-76574035D01*
X55951401Y-76438495D01*
X56118495Y-76271401D01*
X56248425Y-76085842D01*
X56303002Y-76042217D01*
X56372500Y-76035023D01*
X56434855Y-76066546D01*
X56451575Y-76085842D01*
X56581500Y-76271395D01*
X56581505Y-76271401D01*
X56748599Y-76438495D01*
X56830499Y-76495842D01*
X56942165Y-76574032D01*
X56942167Y-76574033D01*
X56942170Y-76574035D01*
X57156337Y-76673903D01*
X57156343Y-76673904D01*
X57156344Y-76673905D01*
X57181797Y-76680725D01*
X57384592Y-76735063D01*
X57561034Y-76750500D01*
X57619999Y-76755659D01*
X57620000Y-76755659D01*
X57620001Y-76755659D01*
X57678966Y-76750500D01*
X57855408Y-76735063D01*
X58083663Y-76673903D01*
X58297830Y-76574035D01*
X58491401Y-76438495D01*
X58658495Y-76271401D01*
X58788425Y-76085842D01*
X58843002Y-76042217D01*
X58912500Y-76035023D01*
X58974855Y-76066546D01*
X58991575Y-76085842D01*
X59121500Y-76271395D01*
X59121505Y-76271401D01*
X59288599Y-76438495D01*
X59370499Y-76495842D01*
X59482165Y-76574032D01*
X59482167Y-76574033D01*
X59482170Y-76574035D01*
X59696337Y-76673903D01*
X59696343Y-76673904D01*
X59696344Y-76673905D01*
X59721797Y-76680725D01*
X59924592Y-76735063D01*
X60101034Y-76750500D01*
X60159999Y-76755659D01*
X60160000Y-76755659D01*
X60160001Y-76755659D01*
X60218966Y-76750500D01*
X60395408Y-76735063D01*
X60623663Y-76673903D01*
X60837830Y-76574035D01*
X61031401Y-76438495D01*
X61198495Y-76271401D01*
X61328425Y-76085842D01*
X61383002Y-76042217D01*
X61452500Y-76035023D01*
X61514855Y-76066546D01*
X61531575Y-76085842D01*
X61661500Y-76271395D01*
X61661505Y-76271401D01*
X61828599Y-76438495D01*
X61910499Y-76495842D01*
X62022165Y-76574032D01*
X62022167Y-76574033D01*
X62022170Y-76574035D01*
X62236337Y-76673903D01*
X62236343Y-76673904D01*
X62236344Y-76673905D01*
X62261797Y-76680725D01*
X62464592Y-76735063D01*
X62641034Y-76750500D01*
X62699999Y-76755659D01*
X62700000Y-76755659D01*
X62700001Y-76755659D01*
X62758966Y-76750500D01*
X62935408Y-76735063D01*
X63163663Y-76673903D01*
X63313096Y-76604220D01*
X63382172Y-76593729D01*
X63445956Y-76622249D01*
X63484196Y-76680725D01*
X63489500Y-76716603D01*
X63489500Y-77159902D01*
X63469815Y-77226941D01*
X63453181Y-77247583D01*
X48609481Y-92091282D01*
X48609479Y-92091285D01*
X48559361Y-92178094D01*
X48559359Y-92178096D01*
X48530425Y-92228209D01*
X48530424Y-92228210D01*
X48530423Y-92228215D01*
X48489499Y-92380943D01*
X48489499Y-92380945D01*
X48489499Y-92549046D01*
X48489500Y-92549059D01*
X48489500Y-106503330D01*
X48489499Y-106503348D01*
X48489499Y-106669054D01*
X48489498Y-106669054D01*
X42500500Y-106669054D01*
X42500500Y-85999998D01*
X48884532Y-85999998D01*
X48884532Y-86000001D01*
X48904364Y-86226686D01*
X48904366Y-86226697D01*
X48963258Y-86446488D01*
X48963261Y-86446497D01*
X49059431Y-86652732D01*
X49059432Y-86652734D01*
X49189954Y-86839141D01*
X49350858Y-87000045D01*
X49350861Y-87000047D01*
X49537266Y-87130568D01*
X49743504Y-87226739D01*
X49743509Y-87226740D01*
X49743511Y-87226741D01*
X49796415Y-87240916D01*
X49963308Y-87285635D01*
X50125230Y-87299801D01*
X50189998Y-87305468D01*
X50190000Y-87305468D01*
X50190002Y-87305468D01*
X50246673Y-87300509D01*
X50416692Y-87285635D01*
X50636496Y-87226739D01*
X50842734Y-87130568D01*
X51029139Y-87000047D01*
X51190047Y-86839139D01*
X51320568Y-86652734D01*
X51416739Y-86446496D01*
X51475635Y-86226692D01*
X51492634Y-86032384D01*
X51495468Y-86000001D01*
X51495468Y-85999998D01*
X51485372Y-85884607D01*
X51475635Y-85773308D01*
X51416739Y-85553504D01*
X51320568Y-85347266D01*
X51222839Y-85207693D01*
X51190045Y-85160858D01*
X51029141Y-84999954D01*
X50842734Y-84869432D01*
X50842732Y-84869431D01*
X50636497Y-84773261D01*
X50636488Y-84773258D01*
X50416697Y-84714366D01*
X50416693Y-84714365D01*
X50416692Y-84714365D01*
X50416691Y-84714364D01*
X50416686Y-84714364D01*
X50190002Y-84694532D01*
X50189998Y-84694532D01*
X49963313Y-84714364D01*
X49963302Y-84714366D01*
X49743511Y-84773258D01*
X49743502Y-84773261D01*
X49537267Y-84869431D01*
X49537265Y-84869432D01*
X49350858Y-84999954D01*
X49189954Y-85160858D01*
X49059432Y-85347265D01*
X49059431Y-85347267D01*
X48963261Y-85553502D01*
X48963258Y-85553511D01*
X48904366Y-85773302D01*
X48904364Y-85773313D01*
X48884532Y-85999998D01*
X42500500Y-85999998D01*
X42500500Y-43878711D01*
X43149500Y-43878711D01*
X43149500Y-44121288D01*
X43181161Y-44361785D01*
X43243947Y-44596104D01*
X43336773Y-44820205D01*
X43336776Y-44820212D01*
X43458064Y-45030289D01*
X43458066Y-45030292D01*
X43458067Y-45030293D01*
X43605733Y-45222736D01*
X43605739Y-45222743D01*
X43777256Y-45394260D01*
X43777262Y-45394265D01*
X43969711Y-45541936D01*
X44179788Y-45663224D01*
X44403900Y-45756054D01*
X44638211Y-45818838D01*
X44818586Y-45842584D01*
X44878711Y-45850500D01*
X44878712Y-45850500D01*
X45121289Y-45850500D01*
X45169388Y-45844167D01*
X45361789Y-45818838D01*
X45596100Y-45756054D01*
X45820212Y-45663224D01*
X46030289Y-45541936D01*
X46222738Y-45394265D01*
X46394265Y-45222738D01*
X46541936Y-45030289D01*
X46663224Y-44820212D01*
X46756054Y-44596100D01*
X46818838Y-44361789D01*
X46850500Y-44121288D01*
X46850500Y-43878712D01*
X46850500Y-43878711D01*
X95149500Y-43878711D01*
X95149500Y-44121288D01*
X95181161Y-44361785D01*
X95243947Y-44596104D01*
X95336773Y-44820205D01*
X95336776Y-44820212D01*
X95458064Y-45030289D01*
X95458066Y-45030292D01*
X95458067Y-45030293D01*
X95605733Y-45222736D01*
X95605739Y-45222743D01*
X95777256Y-45394260D01*
X95777262Y-45394265D01*
X95969711Y-45541936D01*
X96179788Y-45663224D01*
X96403900Y-45756054D01*
X96638211Y-45818838D01*
X96818586Y-45842584D01*
X96878711Y-45850500D01*
X96878712Y-45850500D01*
X97121289Y-45850500D01*
X97169388Y-45844167D01*
X97361789Y-45818838D01*
X97596100Y-45756054D01*
X97820212Y-45663224D01*
X98030289Y-45541936D01*
X98222738Y-45394265D01*
X98394265Y-45222738D01*
X98541936Y-45030289D01*
X98663224Y-44820212D01*
X98756054Y-44596100D01*
X98818838Y-44361789D01*
X98850500Y-44121288D01*
X98850500Y-43878712D01*
X98818838Y-43638211D01*
X98756054Y-43403900D01*
X98663224Y-43179788D01*
X98541936Y-42969711D01*
X98394265Y-42777262D01*
X98394260Y-42777256D01*
X98222743Y-42605739D01*
X98222736Y-42605733D01*
X98030293Y-42458067D01*
X98030292Y-42458066D01*
X98030289Y-42458064D01*
X97820212Y-42336776D01*
X97820205Y-42336773D01*
X97596104Y-42243947D01*
X97361785Y-42181161D01*
X97121289Y-42149500D01*
X97121288Y-42149500D01*
X96878712Y-42149500D01*
X96878711Y-42149500D01*
X96638214Y-42181161D01*
X96403895Y-42243947D01*
X96179794Y-42336773D01*
X96179785Y-42336777D01*
X95969706Y-42458067D01*
X95777263Y-42605733D01*
X95777256Y-42605739D01*
X95605739Y-42777256D01*
X95605733Y-42777263D01*
X95458067Y-42969706D01*
X95336777Y-43179785D01*
X95336773Y-43179794D01*
X95243947Y-43403895D01*
X95181161Y-43638214D01*
X95149500Y-43878711D01*
X46850500Y-43878711D01*
X46818838Y-43638211D01*
X46756054Y-43403900D01*
X46663224Y-43179788D01*
X46541936Y-42969711D01*
X46394265Y-42777262D01*
X46394260Y-42777256D01*
X46222743Y-42605739D01*
X46222736Y-42605733D01*
X46030293Y-42458067D01*
X46030292Y-42458066D01*
X46030289Y-42458064D01*
X45820212Y-42336776D01*
X45820205Y-42336773D01*
X45596104Y-42243947D01*
X45361785Y-42181161D01*
X45121289Y-42149500D01*
X45121288Y-42149500D01*
X44878712Y-42149500D01*
X44878711Y-42149500D01*
X44638214Y-42181161D01*
X44403895Y-42243947D01*
X44179794Y-42336773D01*
X44179785Y-42336777D01*
X43969706Y-42458067D01*
X43777263Y-42605733D01*
X43777256Y-42605739D01*
X43605739Y-42777256D01*
X43605733Y-42777263D01*
X43458067Y-42969706D01*
X43336777Y-43179785D01*
X43336773Y-43179794D01*
X43243947Y-43403895D01*
X43181161Y-43638214D01*
X43149500Y-43878711D01*
X42500500Y-43878711D01*
X42500500Y-41624500D01*
X42520185Y-41557461D01*
X42572989Y-41511706D01*
X42624500Y-41500500D01*
X99875500Y-41500500D01*
X99942539Y-41520185D01*
G37*
%TD.AperFunction*%
%TD*%
M02*
