%TF.GenerationSoftware,KiCad,Pcbnew,8.0.7*%
%TF.CreationDate,2026-01-14T22:46:50+09:00*%
%TF.ProjectId,alarm_unit,616c6172-6d5f-4756-9e69-742e6b696361,rev?*%
%TF.SameCoordinates,Original*%
%TF.FileFunction,Soldermask,Bot*%
%TF.FilePolarity,Negative*%
%FSLAX46Y46*%
G04 Gerber Fmt 4.6, Leading zero omitted, Abs format (unit mm)*
G04 Created by KiCad (PCBNEW 8.0.7) date 2026-01-14 22:46:50*
%MOMM*%
%LPD*%
G01*
G04 APERTURE LIST*
G04 Aperture macros list*
%AMRoundRect*
0 Rectangle with rounded corners*
0 $1 Rounding radius*
0 $2 $3 $4 $5 $6 $7 $8 $9 X,Y pos of 4 corners*
0 Add a 4 corners polygon primitive as box body*
4,1,4,$2,$3,$4,$5,$6,$7,$8,$9,$2,$3,0*
0 Add four circle primitives for the rounded corners*
1,1,$1+$1,$2,$3*
1,1,$1+$1,$4,$5*
1,1,$1+$1,$6,$7*
1,1,$1+$1,$8,$9*
0 Add four rect primitives between the rounded corners*
20,1,$1+$1,$2,$3,$4,$5,0*
20,1,$1+$1,$4,$5,$6,$7,0*
20,1,$1+$1,$6,$7,$8,$9,0*
20,1,$1+$1,$8,$9,$2,$3,0*%
G04 Aperture macros list end*
%ADD10C,3.200000*%
%ADD11O,1.700000X1.700000*%
%ADD12R,1.700000X1.700000*%
%ADD13C,1.600000*%
%ADD14O,1.600000X1.600000*%
%ADD15RoundRect,0.250000X-0.600000X-0.750000X0.600000X-0.750000X0.600000X0.750000X-0.600000X0.750000X0*%
%ADD16O,1.700000X2.000000*%
%ADD17RoundRect,0.250000X-0.350000X-0.625000X0.350000X-0.625000X0.350000X0.625000X-0.350000X0.625000X0*%
%ADD18O,1.200000X1.750000*%
%ADD19R,1.800000X1.800000*%
%ADD20C,1.800000*%
%ADD21R,1.600000X1.600000*%
G04 APERTURE END LIST*
D10*
%TO.C,REF\u002A\u002A*%
X97000000Y-116000000D03*
%TD*%
%TO.C,REF\u002A\u002A*%
X46000000Y-116000000D03*
%TD*%
%TO.C,REF\u002A\u002A*%
X97000000Y-44000000D03*
%TD*%
%TO.C,REF\u002A\u002A*%
X45000000Y-44000000D03*
%TD*%
D11*
%TO.C,DFPlayer*%
X95700000Y-86000000D03*
X93160000Y-86000000D03*
X90620000Y-86000000D03*
X88080000Y-86000000D03*
X85540000Y-86000000D03*
X83000000Y-86000000D03*
X80460000Y-86000000D03*
D12*
X77920000Y-86000000D03*
%TD*%
%TO.C,U2_Left1*%
X77920000Y-100150000D03*
D11*
X80460000Y-100150000D03*
X83000000Y-100150000D03*
X85540000Y-100150000D03*
X88080000Y-100150000D03*
X90620000Y-100150000D03*
X93160000Y-100150000D03*
X95700000Y-100150000D03*
%TD*%
D12*
%TO.C,U1_Right1*%
X50000000Y-50000000D03*
D11*
X52540000Y-50000000D03*
X55080000Y-50000000D03*
X57620000Y-50000000D03*
X60160000Y-50000000D03*
X62700000Y-50000000D03*
X65240000Y-50000000D03*
X67780000Y-50000000D03*
X70320000Y-50000000D03*
X72860000Y-50000000D03*
X75400000Y-50000000D03*
X77940000Y-50000000D03*
X80480000Y-50000000D03*
X83020000Y-50000000D03*
X85560000Y-50000000D03*
X88100000Y-50000000D03*
X90640000Y-50000000D03*
X93180000Y-50000000D03*
X95720000Y-50000000D03*
%TD*%
D12*
%TO.C,ESP32_WROVER*%
X50000000Y-75400000D03*
D11*
X52540000Y-75400000D03*
X55080000Y-75400000D03*
X57620000Y-75400000D03*
X60160000Y-75400000D03*
X62700000Y-75400000D03*
X65240000Y-75400000D03*
X67780000Y-75400000D03*
X70320000Y-75400000D03*
X72860000Y-75400000D03*
X75400000Y-75400000D03*
X77940000Y-75400000D03*
X80480000Y-75400000D03*
X83020000Y-75400000D03*
X85560000Y-75400000D03*
X88100000Y-75400000D03*
X90640000Y-75400000D03*
X93180000Y-75400000D03*
X95720000Y-75400000D03*
%TD*%
D13*
%TO.C,510*%
X50190000Y-86000000D03*
D14*
X57810000Y-86000000D03*
%TD*%
%TO.C,1k*%
X50190000Y-100000000D03*
D13*
X57810000Y-100000000D03*
%TD*%
D15*
%TO.C,Button*%
X54500000Y-112000000D03*
D16*
X57000000Y-112000000D03*
%TD*%
D17*
%TO.C,7Seg_Display*%
X68000000Y-112000000D03*
D18*
X70000000Y-112000000D03*
X72000000Y-112000000D03*
X74000000Y-112000000D03*
%TD*%
D15*
%TO.C,Speaker*%
X84360000Y-112000000D03*
D16*
X86860000Y-112000000D03*
%TD*%
D19*
%TO.C,LED*%
X66000000Y-86000000D03*
D20*
X68540000Y-86000000D03*
%TD*%
D21*
%TO.C,470u*%
X65500000Y-100000000D03*
D13*
X69000000Y-100000000D03*
%TD*%
M02*
